<?xml version="1.0" encoding="UTF-8"?>
<svg width="74px" height="22px" viewBox="0 0 74 22" version="1.1" xmlns="http://www.w3.org/2000/svg" xmlns:xlink="http://www.w3.org/1999/xlink">
    <!-- Generator: Sketch 52.5 (67469) - http://www.bohemiancoding.com/sketch -->
    <title>main-menu</title>
    <desc>Created with Sketch.</desc>
    <g id="Page-1" stroke="none" stroke-width="1" fill="none" fill-rule="evenodd">
        <g id="feed" transform="translate(-1061.000000, -18.000000)">
            <g id="top-bar" transform="translate(0.000000, -137.000000)">
                <g id="main-menu" transform="translate(1061.000000, 155.000000)">
                    <g id="explore" fill-rule="nonzero">
                        <path d="M6.6743483,14.7225711 L6.6743483,14.7225711 L6.6743483,14.7225711 L11.8965788,12.6336789 C12.148599,12.5328708 12.5321484,12.1501531 12.6335316,11.8965999 L14.7218632,6.67380877 C14.6882904,6.75777236 14.6944544,6.96810257 14.9284,7.20502651 C15.165936,7.44558649 15.3821627,7.45290336 15.4672478,7.41885654 L10.2455778,9.50830935 C9.99351537,9.60917222 9.60989493,9.99196122 9.50845671,10.2455568 L7.41956449,15.4677873 C7.45316874,15.3837767 7.44701774,15.17337 7.21303497,14.9364085 C6.9755357,14.6958857 6.75938617,14.688556 6.6743483,14.7225711 L6.6743483,14.7225711 Z M7.04573897,15.6510478 C6.53519666,15.8552648 6.28978096,15.5996637 6.4910878,15.0963967 L8.57998002,9.8741661 C8.78419694,9.36362379 9.3708538,8.78124164 9.87406687,8.57988078 L15.0957368,6.49042798 C15.6062243,6.28615625 15.8516408,6.54175804 15.650388,7.04507916 L13.5620564,12.2678703 C13.3578943,12.7784674 12.7712366,13.3608488 12.2679695,13.5621556 L7.04573897,15.6510478 L7.04573897,15.6510478 Z" id="Rectangle-17" fill="#231F20"></path>
                        <path d="M11,21 L11,21 C16.5228475,21 21,16.5228475 21,11 C21,5.4771525 16.5228475,1 11,1 C5.4771525,1 1,5.4771525 1,11 C1,16.5228475 5.4771525,21 11,21 L11,21 Z M11,22 L11,22 C4.92486775,22 0,17.0751322 0,11 C0,4.92486775 4.92486775,0 11,0 C17.0751322,0 22,4.92486775 22,11 C22,17.0751322 17.0751322,22 11,22 L11,22 Z" id="Oval-11" fill="#2C2C2C"></path>
                    </g>
                    <g id="notification" transform="translate(52.000000, 1.000000)" fill="#2C2C2C">
                        <path d="M15.9563556,1 C16.8260889,1 17.6889778,1.257 18.4516444,1.7435 C20.9132,3.3135 21.7521333,6.8175 20.3211556,9.5545 C19.2998667,11.509 15.0465333,15.169 11.4057778,17.9425 C11.3436889,17.99 11.2801333,18 11.2376,18 C11.1950667,18 11.1315111,17.99 11.0689333,17.9425 C7.42915556,15.169 3.17582222,11.509 2.15453333,9.5545 C0.723555556,6.8175 1.56248889,3.313 4.02404444,1.7435 C4.78622222,1.257 5.64911111,1 6.51884444,1 C8.052,1 9.48591111,1.7625 10.4529333,3.091 L11.2376,4.1685 L12.0222667,3.091 C12.9897778,1.762 14.4232,1 15.9563556,1 L15.9563556,1 Z M15.9563556,0 C14.1611556,0 12.408,0.886 11.2376,2.494 C10.0676889,0.8865 8.31453333,0 6.51884444,0 C5.49511111,0 4.45768889,0.288 3.50631111,0.895 C0.612088889,2.7405 -0.378888889,6.829 1.29164444,10.026 C2.65417778,12.633 8.40644444,17.161 10.4847111,18.744 C10.7086222,18.9145 10.9731111,19 11.2376,19 C11.5020889,19 11.7665778,18.9145 11.9904889,18.744 C14.0687556,17.161 19.8215111,12.633 21.1840444,10.026 C22.8545778,6.829 21.8631111,2.7405 18.9693778,0.895 C18.018,0.2885 16.9800889,0 15.9563556,0 L15.9563556,0 L15.9563556,0 Z" id="icon-notification"></path>
                    </g>
                </g>
            </g>
        </g>
    </g>
</svg>