<?xml version="1.0" encoding="UTF-8"?>
<svg width="16px" height="16px" viewBox="0 0 16 16" version="1.1" xmlns="http://www.w3.org/2000/svg" xmlns:xlink="http://www.w3.org/1999/xlink">
    <!-- Generator: Sketch 52.5 (67469) - http://www.bohemiancoding.com/sketch -->
    <title>comment</title>
    <desc>Created with Sketch.</desc>
    <g id="Symbols" stroke="none" stroke-width="1" fill="none" fill-rule="evenodd">
        <g id="feedcard" transform="translate(-213.000000, -304.000000)" fill="#262626">
            <g id="comment">
                <g transform="translate(213.000000, 304.000000)">
                    <path d="M15.7961744,15.8685683 C15.7782733,15.8685683 15.7603722,15.8662825 15.7420903,15.8609491 L12.3751611,14.9569275 C12.3081272,14.9390224 12.2395698,14.9302602 12.1710125,14.9302602 C12.0308507,14.9302602 11.8918316,14.9668325 11.766143,15.0350246 C10.6395167,15.6472297 9.3533041,16 7.98139473,16 C7.34228759,16 6.68413673,15.9234267 6.01570227,15.7603752 C3.54344693,15.1580752 0.911224368,12.6010619 0.274783346,10.1324317 C-1.10131564,4.79439987 2.88110645,-0.000380961451 7.98139473,0 C8.69324887,0.000380961451 9.42719373,0.0937165171 10.1706604,0.291816472 C12.8961972,1.01869092 15.0329023,3.21912426 15.7112395,5.96280864 C16.2117083,7.9891426 15.9386214,9.93014119 15.130787,11.5579895 C15.0401389,11.740089 15.0134777,11.9465702 15.0664192,12.1431463 L15.9927056,15.6098955 C16.0288887,15.7439939 15.9252908,15.8685683 15.7961744,15.8685683 L15.7961744,15.8685683 Z M14.973105,6.1460511 C14.3557077,3.64656301 12.4406715,1.68575442 9.9752719,1.02821496 C9.3133123,0.851829805 8.64259259,0.762303864 7.98139473,0.761922903 L7.98063298,0.761922903 C5.73004651,0.761922903 3.64818737,1.78594728 2.26827964,3.57189457 C0.886467536,5.36012762 0.428275705,7.68208767 1.01063257,9.94157004 C1.5697561,12.1100026 3.99249777,14.4833925 6.19547495,15.0201671 C6.78925805,15.1649325 7.39027776,15.2380771 7.98139473,15.2380771 C9.18571939,15.2380771 10.3374834,14.9443558 11.4039315,14.3652944 C11.6415971,14.2361485 11.9066857,14.1683373 12.1710125,14.1683373 C12.3069846,14.1683373 12.4414332,14.1858616 12.5720731,14.22091 L15.0096689,14.8757828 L14.3320935,12.3404843 C14.2330661,11.9698088 14.2749623,11.5713231 14.4501645,11.2185528 C15.2263864,9.65546799 15.4069209,7.90152146 14.973105,6.1460511 L14.973105,6.1460511 Z"></path>
                </g>
            </g>
        </g>
    </g>
</svg>