<?xml version="1.0" encoding="UTF-8"?>
<svg width="16px" height="14px" viewBox="0 0 16 14" version="1.1" xmlns="http://www.w3.org/2000/svg" xmlns:xlink="http://www.w3.org/1999/xlink">
    <!-- Generator: Sketch 52.5 (67469) - http://www.bohemiancoding.com/sketch -->
    <title>heart</title>
    <desc>Created with Sketch.</desc>
    <g id="Symbols" stroke="none" stroke-width="1" fill="none" fill-rule="evenodd">
        <g id="feedcard" transform="translate(-176.000000, -306.000000)" fill="#262626">
            <g id="heart">
                <g transform="translate(176.000000, 306.000000)">
                    <path d="M11.5089723,0.709141274 C12.1557517,0.709141274 12.7974412,0.891390582 13.3646001,1.23638781 C15.1951421,2.34973961 15.819017,4.83457064 14.7548668,6.7754903 C13.9953827,8.16150693 10.8323807,10.756964 8.1249237,12.7237673 C8.07875114,12.7574515 8.03148789,12.7645429 7.99985787,12.7645429 C7.96822785,12.7645429 7.92096461,12.7574515 7.87442848,12.7237673 C5.1676986,10.756964 2.00469658,8.16150693 1.24521253,6.7754903 C0.181062317,4.83457064 0.804937197,2.34938504 2.63547917,1.23638781 C3.20227459,0.891390582 3.84396408,0.709141274 4.49074345,0.709141274 C5.63087843,0.709141274 6.69721003,1.2498615 7.41633854,2.19195568 L7.99985787,2.9560554 L8.58337721,2.19195568 C9.30286928,1.24950693 10.3688373,0.709141274 11.5089723,0.709141274 L11.5089723,0.709141274 Z M11.5089723,0 C10.1739673,0 8.87022877,0.628299169 7.99985787,1.76859834 C7.12985054,0.62865374 5.82611201,0 4.49074345,0 C3.72944159,0 2.95795995,0.204232687 2.25046547,0.63468144 C0.09816985,1.94340166 -0.638773263,4.84272576 0.603523046,7.10985042 C1.61677438,8.95858172 5.89446193,12.1695734 7.43997016,13.292144 C7.60648222,13.4130526 7.80317005,13.4736842 7.99985787,13.4736842 C8.1965457,13.4736842 8.39323353,13.4130526 8.55974559,13.292144 C10.1052538,12.1695734 14.3833049,8.95858172 15.3965563,7.10985042 C16.6388526,4.84272576 15.9015459,1.94340166 13.7496138,0.63468144 C13.0421194,0.204587258 12.2702742,0 11.5089723,0 L11.5089723,0 L11.5089723,0 Z" id="path-1"></path>
                </g>
            </g>
        </g>
    </g>
</svg>