<svg xmlns="http://www.w3.org/2000/svg" xmlns:xlink="http://www.w3.org/1999/xlink" viewBox="0 0 333.29 336.07"><defs><style>.cls-1{isolation:isolate;}.cls-2{fill:#821d2c;}.cls-3{fill:#5e001c;}.cls-4{fill:url(#_ÂÁ_Ï_ÌÌ_È_ËÂÌÚ_83);}.cls-23,.cls-25,.cls-5{opacity:0.2;}.cls-6{fill:url(#_ÂÁ_Ï_ÌÌ_È_ËÂÌÚ_22);}.cls-18,.cls-7{fill:#992e0e;}.cls-8{fill:url(#_ÂÁ_Ï_ÌÌ_È_ËÂÌÚ_7);}.cls-9{fill:url(#_ÂÁ_Ï_ÌÌ_È_ËÂÌÚ_22-2);}.cls-10,.cls-78{fill:#003363;}.cls-11,.cls-30{fill:#006070;}.cls-12{fill:url(#_ÂÁ_Ï_ÌÌ_È_ËÂÌÚ_7-2);}.cls-13{fill:#f47100;}.cls-14,.cls-27{fill:#840400;}.cls-15{fill:#fe9300;}.cls-16{fill:#831a0e;}.cls-17{fill:url(#_ÂÁ_Ï_ÌÌ_È_ËÂÌÚ_44);}.cls-102,.cls-18,.cls-24,.cls-27,.cls-30,.cls-78,.cls-95,.cls-96,.cls-98{opacity:0.5;}.cls-19,.cls-23{fill:#fff;}.cls-20{fill:url(#_ÂÁ_Ï_ÌÌ_È_ËÂÌÚ_5);}.cls-21{fill:#590800;}.cls-22{fill:url(#_ÂÁ_Ï_ÌÌ_È_ËÂÌÚ_5-2);}.cls-108,.cls-24{fill:#c13c32;}.cls-25{fill:#ea0400;}.cls-26{fill:#fea900;}.cls-28{fill:url(#_ÂÁ_Ï_ÌÌ_È_ËÂÌÚ_49);}.cls-29{fill:url(#_ÂÁ_Ï_ÌÌ_È_ËÂÌÚ_13);}.cls-31{opacity:0.33;fill:url(#_ÂÁ_Ï_ÌÌ_È_ËÂÌÚ_21);}.cls-103,.cls-104,.cls-31,.cls-80,.cls-81{mix-blend-mode:color-dodge;}.cls-32{fill:#003400;}.cls-33{fill:url(#_ÂÁ_Ï_ÌÌ_È_ËÂÌÚ_99);}.cls-34{fill:url(#_ÂÁ_Ï_ÌÌ_È_ËÂÌÚ_99-2);}.cls-35{fill:#ffbb9e;}.cls-36{fill:#ffe4c8;}.cls-37{fill:#ffcaad;}.cls-38{fill:url(#_ÂÁ_Ï_ÌÌ_È_ËÂÌÚ_99-3);}.cls-39{fill:url(#_ÂÁ_Ï_ÌÌ_È_ËÂÌÚ_99-4);}.cls-40{fill:url(#_ÂÁ_Ï_ÌÌ_È_ËÂÌÚ_99-5);}.cls-41{fill:url(#_ÂÁ_Ï_ÌÌ_È_ËÂÌÚ_99-6);}.cls-42{fill:url(#_ÂÁ_Ï_ÌÌ_È_ËÂÌÚ_99-7);}.cls-43{fill:url(#_ÂÁ_Ï_ÌÌ_È_ËÂÌÚ_99-8);}.cls-44{fill:url(#_ÂÁ_Ï_ÌÌ_È_ËÂÌÚ_99-9);}.cls-45{fill:url(#_ÂÁ_Ï_ÌÌ_È_ËÂÌÚ_99-10);}.cls-46{fill:url(#_ÂÁ_Ï_ÌÌ_È_ËÂÌÚ_99-11);}.cls-47{fill:url(#_ÂÁ_Ï_ÌÌ_È_ËÂÌÚ_99-12);}.cls-48{fill:url(#_ÂÁ_Ï_ÌÌ_È_ËÂÌÚ_99-13);}.cls-49{fill:url(#_ÂÁ_Ï_ÌÌ_È_ËÂÌÚ_99-14);}.cls-50{fill:url(#_ÂÁ_Ï_ÌÌ_È_ËÂÌÚ_99-15);}.cls-51{fill:url(#_ÂÁ_Ï_ÌÌ_È_ËÂÌÚ_13-2);}.cls-52{fill:url(#_ÂÁ_Ï_ÌÌ_È_ËÂÌÚ_13-3);}.cls-53{fill:url(#_ÂÁ_Ï_ÌÌ_È_ËÂÌÚ_13-4);}.cls-54{fill:url(#_ÂÁ_Ï_ÌÌ_È_ËÂÌÚ_13-5);}.cls-55{fill:url(#_ÂÁ_Ï_ÌÌ_È_ËÂÌÚ_13-6);}.cls-56,.cls-98{fill:#3b0e21;}.cls-57{fill:url(#_ÂÁ_Ï_ÌÌ_È_ËÂÌÚ_97);}.cls-58{fill:#6ab3f2;}.cls-59{fill:url(#_ÂÁ_Ï_ÌÌ_È_ËÂÌÚ_97-2);}.cls-60{fill:url(#_ÂÁ_Ï_ÌÌ_È_ËÂÌÚ_97-3);}.cls-61{fill:#c4552d;}.cls-62{fill:url(#_ÂÁ_Ï_ÌÌ_È_ËÂÌÚ_44-2);}.cls-63{fill:url(#_ÂÁ_Ï_ÌÌ_È_ËÂÌÚ_28);}.cls-64{fill:url(#_ÂÁ_Ï_ÌÌ_È_ËÂÌÚ_44-3);}.cls-65{fill:url(#_ÂÁ_Ï_ÌÌ_È_ËÂÌÚ_44-4);}.cls-66{fill:url(#_ÂÁ_Ï_ÌÌ_È_ËÂÌÚ_44-5);}.cls-67{fill:url(#_ÂÁ_Ï_ÌÌ_È_ËÂÌÚ_13-7);}.cls-68{fill:#fc9365;}.cls-69{fill:url(#_ÂÁ_Ï_ÌÌ_È_ËÂÌÚ_86);}.cls-70{fill:url(#_ÂÁ_Ï_ÌÌ_È_ËÂÌÚ_34);}.cls-71{fill:url(#_ÂÁ_Ï_ÌÌ_È_ËÂÌÚ_34-2);}.cls-72{fill:url(#_ÂÁ_Ï_ÌÌ_È_ËÂÌÚ_44-6);}.cls-73{fill:url(#_ÂÁ_Ï_ÌÌ_È_ËÂÌÚ_44-7);}.cls-74{fill:url(#_ÂÁ_Ï_ÌÌ_È_ËÂÌÚ_13-8);}.cls-75{fill:url(#_ÂÁ_Ï_ÌÌ_È_ËÂÌÚ_44-8);}.cls-76{fill:url(#_ÂÁ_Ï_ÌÌ_È_ËÂÌÚ_13-9);}.cls-77{fill:url(#_ÂÁ_Ï_ÌÌ_È_ËÂÌÚ_47);}.cls-79{fill:url(#_ÂÁ_Ï_ÌÌ_È_ËÂÌÚ_49-2);}.cls-103,.cls-104,.cls-80,.cls-81{opacity:0.47;}.cls-80{fill:url(#_ÂÁ_Ï_ÌÌ_È_ËÂÌÚ_51);}.cls-81{fill:url(#_ÂÁ_Ï_ÌÌ_È_ËÂÌÚ_51-2);}.cls-82{fill:url(#_ÂÁ_Ï_ÌÌ_È_ËÂÌÚ_44-9);}.cls-83{fill:url(#_ÂÁ_Ï_ÌÌ_È_ËÂÌÚ_5-3);}.cls-84{fill:url(#_ÂÁ_Ï_ÌÌ_È_ËÂÌÚ_5-4);}.cls-85{fill:url(#_ÂÁ_Ï_ÌÌ_È_ËÂÌÚ_44-10);}.cls-86{fill:url(#_ÂÁ_Ï_ÌÌ_È_ËÂÌÚ_44-11);}.cls-87{fill:url(#_ÂÁ_Ï_ÌÌ_È_ËÂÌÚ_44-12);}.cls-88{fill:url(#_ÂÁ_Ï_ÌÌ_È_ËÂÌÚ_43);}.cls-89{fill:url(#_ÂÁ_Ï_ÌÌ_È_ËÂÌÚ_43-2);}.cls-90{fill:url(#_ÂÁ_Ï_ÌÌ_È_ËÂÌÚ_49-3);}.cls-91{fill:url(#_ÂÁ_Ï_ÌÌ_È_ËÂÌÚ_43-3);}.cls-92{fill:url(#_ÂÁ_Ï_ÌÌ_È_ËÂÌÚ_49-4);}.cls-93{fill:url(#_ÂÁ_Ï_ÌÌ_È_ËÂÌÚ_43-4);}.cls-94{fill:url(#_ÂÁ_Ï_ÌÌ_È_ËÂÌÚ_49-5);}.cls-95{fill:url(#_ÂÁ_Ï_ÌÌ_È_ËÂÌÚ_49-6);}.cls-96{fill:url(#_ÂÁ_Ï_ÌÌ_È_ËÂÌÚ_49-7);}.cls-97{fill:#630e41;}.cls-99{fill:url(#_ÂÁ_Ï_ÌÌ_È_ËÂÌÚ_44-13);}.cls-100{fill:url(#_ÂÁ_Ï_ÌÌ_È_ËÂÌÚ_44-14);}.cls-101{fill:url(#_ÂÁ_Ï_ÌÌ_È_ËÂÌÚ_44-15);}.cls-102{fill:url(#_ÂÁ_Ï_ÌÌ_È_ËÂÌÚ_49-8);}.cls-103{fill:url(#_ÂÁ_Ï_ÌÌ_È_ËÂÌÚ_54);}.cls-104{fill:url(#_ÂÁ_Ï_ÌÌ_È_ËÂÌÚ_52);}.cls-105{fill:url(#_ÂÁ_Ï_ÌÌ_È_ËÂÌÚ_49-9);}.cls-106{fill:#ffd16c;}.cls-107{fill:url(#_ÂÁ_Ï_ÌÌ_È_ËÂÌÚ_34-3);}.cls-108{opacity:0.59;}</style><linearGradient id="_ÂÁ_Ï_ÌÌ_È_ËÂÌÚ_83" x1="49.3" y1="189.59" x2="356.94" y2="189.59" gradientUnits="userSpaceOnUse"><stop offset="0" stop-color="#8d0e16"/><stop offset="1" stop-color="#f24f1e"/></linearGradient><linearGradient id="_ÂÁ_Ï_ÌÌ_È_ËÂÌÚ_22" x1="153.44" y1="353.73" x2="178.26" y2="353.73" gradientTransform="matrix(0.99, -0.15, 0.15, 0.99, -48.91, 24.91)" gradientUnits="userSpaceOnUse"><stop offset="0" stop-color="#ddf8fd"/><stop offset="1" stop-color="#8290c5"/></linearGradient><linearGradient id="_ÂÁ_Ï_ÌÌ_È_ËÂÌÚ_7" x1="125.8" y1="333.9" x2="125.8" y2="223.38" gradientUnits="userSpaceOnUse"><stop offset="0" stop-color="#bd81ff"/><stop offset="1" stop-color="#007f36"/></linearGradient><linearGradient id="_ÂÁ_Ï_ÌÌ_È_ËÂÌÚ_22-2" x1="80.4" y1="347.75" x2="125.79" y2="347.75" gradientTransform="matrix(1, 0.06, -0.06, 1, 21.89, -5.26)" xlink:href="#_ÂÁ_Ï_ÌÌ_È_ËÂÌÚ_22"/><linearGradient id="_ÂÁ_Ï_ÌÌ_È_ËÂÌÚ_7-2" x1="161.77" y1="331.67" x2="161.77" y2="223.79" xlink:href="#_ÂÁ_Ï_ÌÌ_È_ËÂÌÚ_7"/><linearGradient id="_ÂÁ_Ï_ÌÌ_È_ËÂÌÚ_44" x1="130.33" y1="139.38" x2="129.97" y2="84.17" gradientUnits="userSpaceOnUse"><stop offset="0" stop-color="#e1862a"/><stop offset="1" stop-color="#b83d18"/></linearGradient><linearGradient id="_ÂÁ_Ï_ÌÌ_È_ËÂÌÚ_5" x1="113.93" y1="118.01" x2="117.86" y2="118.01" gradientTransform="translate(-25.56 35.33) rotate(-15.61)" gradientUnits="userSpaceOnUse"><stop offset="0" stop-color="#a43113"/><stop offset="1" stop-color="#6f160d"/></linearGradient><linearGradient id="_ÂÁ_Ï_ÌÌ_È_ËÂÌÚ_5-2" x1="130.25" y1="116.22" x2="135.66" y2="116.22" xlink:href="#_ÂÁ_Ï_ÌÌ_È_ËÂÌÚ_5"/><linearGradient id="_ÂÁ_Ï_ÌÌ_È_ËÂÌÚ_49" x1="138.81" y1="154.9" x2="138.81" y2="138.51" gradientUnits="userSpaceOnUse"><stop offset="0" stop-color="#8ba7fd"/><stop offset="1" stop-color="#95baff"/></linearGradient><linearGradient id="_ÂÁ_Ï_ÌÌ_È_ËÂÌÚ_13" x1="102.25" y1="181.23" x2="119.37" y2="181.23" gradientUnits="userSpaceOnUse"><stop offset="0" stop-color="#e50000"/><stop offset="1" stop-color="#c40009"/></linearGradient><linearGradient id="_ÂÁ_Ï_ÌÌ_È_ËÂÌÚ_21" x1="281.35" y1="186.94" x2="281.35" y2="145.8" gradientUnits="userSpaceOnUse"><stop offset="0"/><stop offset="1" stop-color="#e1874b"/></linearGradient><linearGradient id="_ÂÁ_Ï_ÌÌ_È_ËÂÌÚ_99" x1="482.86" y1="139.75" x2="495.87" y2="139.75" gradientTransform="translate(248.2 -279.2) rotate(64.95)" gradientUnits="userSpaceOnUse"><stop offset="0" stop-color="#ca0000"/><stop offset="1" stop-color="#a80009"/></linearGradient><linearGradient id="_ÂÁ_Ï_ÌÌ_È_ËÂÌÚ_99-2" x1="484.17" y1="132.46" x2="492.59" y2="132.46" xlink:href="#_ÂÁ_Ï_ÌÌ_È_ËÂÌÚ_99"/><linearGradient id="_ÂÁ_Ï_ÌÌ_È_ËÂÌÚ_99-3" x1="491.26" y1="97.46" x2="501.29" y2="97.46" gradientTransform="translate(333.37 -269.04) rotate(79.32)" xlink:href="#_ÂÁ_Ï_ÌÌ_È_ËÂÌÚ_99"/><linearGradient id="_ÂÁ_Ï_ÌÌ_È_ËÂÌÚ_99-4" x1="488.71" y1="95.12" x2="495.95" y2="95.12" gradientTransform="translate(333.37 -269.04) rotate(79.32)" xlink:href="#_ÂÁ_Ï_ÌÌ_È_ËÂÌÚ_99"/><linearGradient id="_ÂÁ_Ï_ÌÌ_È_ËÂÌÚ_99-5" x1="490.36" y1="90.24" x2="496.27" y2="90.24" gradientTransform="translate(333.37 -269.04) rotate(79.32)" xlink:href="#_ÂÁ_Ï_ÌÌ_È_ËÂÌÚ_99"/><linearGradient id="_ÂÁ_Ï_ÌÌ_È_ËÂÌÚ_99-6" x1="129.61" y1="181.87" x2="139.64" y2="181.87" gradientTransform="matrix(-0.62, -0.79, -0.79, 0.62, 547.76, 207.51)" xlink:href="#_ÂÁ_Ï_ÌÌ_È_ËÂÌÚ_99"/><linearGradient id="_ÂÁ_Ï_ÌÌ_È_ËÂÌÚ_99-7" x1="127.06" y1="179.53" x2="134.3" y2="179.53" gradientTransform="matrix(-0.62, -0.79, -0.79, 0.62, 547.76, 207.51)" xlink:href="#_ÂÁ_Ï_ÌÌ_È_ËÂÌÚ_99"/><linearGradient id="_ÂÁ_Ï_ÌÌ_È_ËÂÌÚ_99-8" x1="128.71" y1="174.65" x2="134.62" y2="174.65" gradientTransform="matrix(-0.62, -0.79, -0.79, 0.62, 547.76, 207.51)" xlink:href="#_ÂÁ_Ï_ÌÌ_È_ËÂÌÚ_99"/><linearGradient id="_ÂÁ_Ï_ÌÌ_È_ËÂÌÚ_99-9" x1="492.95" y1="88.27" x2="507.18" y2="88.27" gradientTransform="matrix(0.09, 1, -1, 0.09, 365.69, -259.5)" xlink:href="#_ÂÁ_Ï_ÌÌ_È_ËÂÌÚ_99"/><linearGradient id="_ÂÁ_Ï_ÌÌ_È_ËÂÌÚ_99-10" x1="494.38" y1="80.3" x2="503.59" y2="80.3" gradientTransform="matrix(0.09, 1, -1, 0.09, 365.69, -259.5)" xlink:href="#_ÂÁ_Ï_ÌÌ_È_ËÂÌÚ_99"/><linearGradient id="_ÂÁ_Ï_ÌÌ_È_ËÂÌÚ_99-11" x1="125.74" y1="194.86" x2="139.97" y2="194.86" gradientTransform="matrix(-0.61, -0.79, -0.79, 0.61, 550, 209.5)" xlink:href="#_ÂÁ_Ï_ÌÌ_È_ËÂÌÚ_99"/><linearGradient id="_ÂÁ_Ï_ÌÌ_È_ËÂÌÚ_99-12" x1="127.18" y1="186.89" x2="136.38" y2="186.89" gradientTransform="matrix(-0.61, -0.79, -0.79, 0.61, 550, 209.5)" xlink:href="#_ÂÁ_Ï_ÌÌ_È_ËÂÌÚ_99"/><linearGradient id="_ÂÁ_Ï_ÌÌ_È_ËÂÌÚ_99-13" x1="487.76" y1="123.6" x2="503.2" y2="123.6" gradientTransform="matrix(0.24, 0.97, -0.97, 0.24, 312.96, -275.69)" xlink:href="#_ÂÁ_Ï_ÌÌ_È_ËÂÌÚ_99"/><linearGradient id="_ÂÁ_Ï_ÌÌ_È_ËÂÌÚ_99-14" x1="488.99" y1="116.8" x2="498.2" y2="116.8" gradientTransform="matrix(0.24, 0.97, -0.97, 0.24, 312.96, -275.69)" xlink:href="#_ÂÁ_Ï_ÌÌ_È_ËÂÌÚ_99"/><linearGradient id="_ÂÁ_Ï_ÌÌ_È_ËÂÌÚ_99-15" x1="495.48" y1="116.5" x2="500.62" y2="116.5" gradientTransform="matrix(0.24, 0.97, -0.97, 0.24, 312.96, -275.69)" xlink:href="#_ÂÁ_Ï_ÌÌ_È_ËÂÌÚ_99"/><linearGradient id="_ÂÁ_Ï_ÌÌ_È_ËÂÌÚ_13-2" x1="295.04" y1="81.09" x2="307.5" y2="81.09" xlink:href="#_ÂÁ_Ï_ÌÌ_È_ËÂÌÚ_13"/><linearGradient id="_ÂÁ_Ï_ÌÌ_È_ËÂÌÚ_13-3" x1="295.79" y1="24.69" x2="302.21" y2="24.69" xlink:href="#_ÂÁ_Ï_ÌÌ_È_ËÂÌÚ_13"/><linearGradient id="_ÂÁ_Ï_ÌÌ_È_ËÂÌÚ_13-4" x1="304.06" y1="58.8" x2="320.04" y2="58.8" xlink:href="#_ÂÁ_Ï_ÌÌ_È_ËÂÌÚ_13"/><linearGradient id="_ÂÁ_Ï_ÌÌ_È_ËÂÌÚ_13-5" x1="291.69" y1="39.85" x2="304.48" y2="39.85" xlink:href="#_ÂÁ_Ï_ÌÌ_È_ËÂÌÚ_13"/><linearGradient id="_ÂÁ_Ï_ÌÌ_È_ËÂÌÚ_13-6" x1="51.97" y1="148.84" x2="63.74" y2="148.84" xlink:href="#_ÂÁ_Ï_ÌÌ_È_ËÂÌÚ_13"/><linearGradient id="_ÂÁ_Ï_ÌÌ_È_ËÂÌÚ_97" x1="4.68" y1="176.54" x2="4.68" y2="155.31" gradientTransform="matrix(-1, 0, 0, 1, 105.67, 0)" gradientUnits="userSpaceOnUse"><stop offset="0" stop-color="#c4f7fd"/><stop offset="1" stop-color="#6addff"/></linearGradient><linearGradient id="_ÂÁ_Ï_ÌÌ_È_ËÂÌÚ_97-2" x1="61.16" y1="149.47" x2="61.16" y2="126.58" gradientTransform="matrix(1, 0, 0, 1, 0, 0)" xlink:href="#_ÂÁ_Ï_ÌÌ_È_ËÂÌÚ_97"/><linearGradient id="_ÂÁ_Ï_ÌÌ_È_ËÂÌÚ_97-3" x1="35.63" y1="201.54" x2="35.63" y2="180.3" gradientTransform="translate(25.53)" xlink:href="#_ÂÁ_Ï_ÌÌ_È_ËÂÌÚ_97"/><linearGradient id="_ÂÁ_Ï_ÌÌ_È_ËÂÌÚ_44-2" x1="90.88" y1="265.23" x2="90.88" y2="258.32" gradientTransform="translate(-166.3 233.3) rotate(-74.78)" xlink:href="#_ÂÁ_Ï_ÌÌ_È_ËÂÌÚ_44"/><linearGradient id="_ÂÁ_Ï_ÌÌ_È_ËÂÌÚ_28" x1="89.02" y1="269.73" x2="89.02" y2="261.22" gradientTransform="translate(-166.3 233.3) rotate(-74.78)" gradientUnits="userSpaceOnUse"><stop offset="0" stop-color="#fda37d"/><stop offset="1" stop-color="#fd9c5e"/></linearGradient><linearGradient id="_ÂÁ_Ï_ÌÌ_È_ËÂÌÚ_44-3" x1="91.76" y1="262.93" x2="91.76" y2="255.31" gradientTransform="translate(-166.3 233.3) rotate(-74.78)" xlink:href="#_ÂÁ_Ï_ÌÌ_È_ËÂÌÚ_44"/><linearGradient id="_ÂÁ_Ï_ÌÌ_È_ËÂÌÚ_44-4" x1="93.09" y1="260.32" x2="93.09" y2="253.03" gradientTransform="translate(-166.3 233.3) rotate(-74.78)" xlink:href="#_ÂÁ_Ï_ÌÌ_È_ËÂÌÚ_44"/><linearGradient id="_ÂÁ_Ï_ÌÌ_È_ËÂÌÚ_44-5" x1="104.62" y1="202.19" x2="180.55" y2="202.19" xlink:href="#_ÂÁ_Ï_ÌÌ_È_ËÂÌÚ_44"/><linearGradient id="_ÂÁ_Ï_ÌÌ_È_ËÂÌÚ_13-7" x1="161.62" y1="184.26" x2="185.74" y2="184.26" xlink:href="#_ÂÁ_Ï_ÌÌ_È_ËÂÌÚ_13"/><linearGradient id="_ÂÁ_Ï_ÌÌ_È_ËÂÌÚ_86" x1="93.53" y1="92.54" x2="154.99" y2="92.54" gradientUnits="userSpaceOnUse"><stop offset="0" stop-color="#7d1831"/><stop offset="1" stop-color="#5c0000"/></linearGradient><linearGradient id="_ÂÁ_Ï_ÌÌ_È_ËÂÌÚ_34" x1="157.93" y1="125.1" x2="172.25" y2="125.1" gradientUnits="userSpaceOnUse"><stop offset="0" stop-color="#700800"/><stop offset="1" stop-color="#5e160d"/></linearGradient><linearGradient id="_ÂÁ_Ï_ÌÌ_È_ËÂÌÚ_34-2" x1="193.76" y1="110.38" x2="227.9" y2="110.38" xlink:href="#_ÂÁ_Ï_ÌÌ_È_ËÂÌÚ_34"/><linearGradient id="_ÂÁ_Ï_ÌÌ_È_ËÂÌÚ_44-6" x1="211.86" y1="208.49" x2="244.36" y2="208.49" xlink:href="#_ÂÁ_Ï_ÌÌ_È_ËÂÌÚ_44"/><linearGradient id="_ÂÁ_Ï_ÌÌ_È_ËÂÌÚ_44-7" x1="290.85" y1="333.72" x2="349.26" y2="333.72" xlink:href="#_ÂÁ_Ï_ÌÌ_È_ËÂÌÚ_44"/><linearGradient id="_ÂÁ_Ï_ÌÌ_È_ËÂÌÚ_13-8" x1="309.09" y1="340.44" x2="352.32" y2="340.44" gradientTransform="translate(-25.15 24.31) rotate(-4.36)" xlink:href="#_ÂÁ_Ï_ÌÌ_È_ËÂÌÚ_13"/><linearGradient id="_ÂÁ_Ï_ÌÌ_È_ËÂÌÚ_44-8" x1="240.85" y1="321.78" x2="257.89" y2="321.78" xlink:href="#_ÂÁ_Ï_ÌÌ_È_ËÂÌÚ_44"/><linearGradient id="_ÂÁ_Ï_ÌÌ_È_ËÂÌÚ_13-9" x1="240.75" y1="325.7" x2="259.43" y2="325.7" xlink:href="#_ÂÁ_Ï_ÌÌ_È_ËÂÌÚ_13"/><linearGradient id="_ÂÁ_Ï_ÌÌ_È_ËÂÌÚ_47" x1="225.9" y1="254.19" x2="301.9" y2="254.19" gradientUnits="userSpaceOnUse"><stop offset="0" stop-color="#6170fd"/><stop offset="1" stop-color="#95baff"/></linearGradient><linearGradient id="_ÂÁ_Ï_ÌÌ_È_ËÂÌÚ_49-2" x1="214.49" y1="276.75" x2="305.36" y2="276.75" xlink:href="#_ÂÁ_Ï_ÌÌ_È_ËÂÌÚ_49"/><linearGradient id="_ÂÁ_Ï_ÌÌ_È_ËÂÌÚ_51" x1="255.87" y1="288.21" x2="255.87" y2="241.68" gradientUnits="userSpaceOnUse"><stop offset="0"/><stop offset="1" stop-color="#ffca9d"/></linearGradient><linearGradient id="_ÂÁ_Ï_ÌÌ_È_ËÂÌÚ_51-2" x1="278.02" y1="244.12" x2="278.02" y2="217.17" xlink:href="#_ÂÁ_Ï_ÌÌ_È_ËÂÌÚ_51"/><linearGradient id="_ÂÁ_Ï_ÌÌ_È_ËÂÌÚ_44-9" x1="182.61" y1="118.16" x2="220.33" y2="118.16" xlink:href="#_ÂÁ_Ï_ÌÌ_È_ËÂÌÚ_44"/><linearGradient id="_ÂÁ_Ï_ÌÌ_È_ËÂÌÚ_5-3" x1="202.73" y1="131.73" x2="208.8" y2="131.73" gradientTransform="translate(-46.66 138.57) rotate(-35.94)" xlink:href="#_ÂÁ_Ï_ÌÌ_È_ËÂÌÚ_5"/><linearGradient id="_ÂÁ_Ï_ÌÌ_È_ËÂÌÚ_5-4" x1="219.77" y1="132.99" x2="225.14" y2="132.99" gradientTransform="translate(-45.23 140.61) rotate(-36.45)" xlink:href="#_ÂÁ_Ï_ÌÌ_È_ËÂÌÚ_5"/><linearGradient id="_ÂÁ_Ï_ÌÌ_È_ËÂÌÚ_44-10" x1="238.07" y1="123.48" x2="322.75" y2="123.48" xlink:href="#_ÂÁ_Ï_ÌÌ_È_ËÂÌÚ_44"/><linearGradient id="_ÂÁ_Ï_ÌÌ_È_ËÂÌÚ_44-11" x1="316.64" y1="100.64" x2="320.69" y2="100.64" xlink:href="#_ÂÁ_Ï_ÌÌ_È_ËÂÌÚ_44"/><linearGradient id="_ÂÁ_Ï_ÌÌ_È_ËÂÌÚ_44-12" x1="318.6" y1="106.82" x2="325.57" y2="106.82" xlink:href="#_ÂÁ_Ï_ÌÌ_È_ËÂÌÚ_44"/><linearGradient id="_ÂÁ_Ï_ÌÌ_È_ËÂÌÚ_43" x1="220.21" y1="200.73" x2="220.21" y2="143.55" gradientUnits="userSpaceOnUse"><stop offset="0" stop-color="#c4f7fd"/><stop offset="1" stop-color="#a6ddff"/></linearGradient><linearGradient id="_ÂÁ_Ï_ÌÌ_È_ËÂÌÚ_43-2" x1="252.25" y1="192.67" x2="252.25" y2="176.5" xlink:href="#_ÂÁ_Ï_ÌÌ_È_ËÂÌÚ_43"/><linearGradient id="_ÂÁ_Ï_ÌÌ_È_ËÂÌÚ_49-3" x1="248.09" y1="191.75" x2="248.09" y2="181.05" xlink:href="#_ÂÁ_Ï_ÌÌ_È_ËÂÌÚ_49"/><linearGradient id="_ÂÁ_Ï_ÌÌ_È_ËÂÌÚ_43-3" x1="239.17" y1="196.15" x2="239.17" y2="189.09" xlink:href="#_ÂÁ_Ï_ÌÌ_È_ËÂÌÚ_43"/><linearGradient id="_ÂÁ_Ï_ÌÌ_È_ËÂÌÚ_49-4" x1="238.64" y1="194.9" x2="238.64" y2="189.09" xlink:href="#_ÂÁ_Ï_ÌÌ_È_ËÂÌÚ_49"/><linearGradient id="_ÂÁ_Ï_ÌÌ_È_ËÂÌÚ_43-4" x1="247.7" y1="205.37" x2="247.7" y2="192.51" xlink:href="#_ÂÁ_Ï_ÌÌ_È_ËÂÌÚ_43"/><linearGradient id="_ÂÁ_Ï_ÌÌ_È_ËÂÌÚ_49-5" x1="240.47" y1="200.34" x2="240.47" y2="192.67" xlink:href="#_ÂÁ_Ï_ÌÌ_È_ËÂÌÚ_49"/><linearGradient id="_ÂÁ_Ï_ÌÌ_È_ËÂÌÚ_49-6" x1="217.07" y1="200.73" x2="217.07" y2="143.55" xlink:href="#_ÂÁ_Ï_ÌÌ_È_ËÂÌÚ_49"/><linearGradient id="_ÂÁ_Ï_ÌÌ_È_ËÂÌÚ_49-7" x1="234.17" y1="194.17" x2="234.17" y2="183.03" xlink:href="#_ÂÁ_Ï_ÌÌ_È_ËÂÌÚ_49"/><linearGradient id="_ÂÁ_Ï_ÌÌ_È_ËÂÌÚ_44-13" x1="209.52" y1="210.88" x2="209.05" y2="138.95" xlink:href="#_ÂÁ_Ï_ÌÌ_È_ËÂÌÚ_44"/><linearGradient id="_ÂÁ_Ï_ÌÌ_È_ËÂÌÚ_44-14" x1="205.99" y1="151.65" x2="210.73" y2="151.65" xlink:href="#_ÂÁ_Ï_ÌÌ_È_ËÂÌÚ_44"/><linearGradient id="_ÂÁ_Ï_ÌÌ_È_ËÂÌÚ_44-15" x1="199.1" y1="152.89" x2="206.44" y2="152.89" xlink:href="#_ÂÁ_Ï_ÌÌ_È_ËÂÌÚ_44"/><linearGradient id="_ÂÁ_Ï_ÌÌ_È_ËÂÌÚ_49-8" x1="224.01" y1="161.18" x2="224.01" y2="158.15" xlink:href="#_ÂÁ_Ï_ÌÌ_È_ËÂÌÚ_49"/><linearGradient id="_ÂÁ_Ï_ÌÌ_È_ËÂÌÚ_54" x1="253.81" y1="143.91" x2="253.81" y2="126.12" gradientUnits="userSpaceOnUse"><stop offset="0"/><stop offset="1" stop-color="#ffa49d"/></linearGradient><linearGradient id="_ÂÁ_Ï_ÌÌ_È_ËÂÌÚ_52" x1="203.62" y1="208.94" x2="203.62" y2="171.09" gradientUnits="userSpaceOnUse"><stop offset="0" stop-color="#ffa49d"/><stop offset="1"/></linearGradient><linearGradient id="_ÂÁ_Ï_ÌÌ_È_ËÂÌÚ_49-9" x1="226.34" y1="160.62" x2="226.34" y2="142.77" xlink:href="#_ÂÁ_Ï_ÌÌ_È_ËÂÌÚ_49"/><linearGradient id="_ÂÁ_Ï_ÌÌ_È_ËÂÌÚ_34-3" x1="162.86" y1="146.57" x2="224.44" y2="146.57" xlink:href="#_ÂÁ_Ï_ÌÌ_È_ËÂÌÚ_34"/></defs><title>couple</title><g class="cls-1"><g id="social_network" data-name="social network"><polygon class="cls-2" points="57.12 190.22 61.62 233.25 68.19 233.25 68.19 188.78 57.12 190.22"/><polygon class="cls-3" points="57.27 191.68 58.9 207.27 68.19 201.45 68.19 190.76 57.27 191.68"/><polygon class="cls-2" points="13.39 143.11 10.34 144.37 21.59 194.88 312.97 193.45 165.05 176.47 29.09 177.62 13.39 143.11"/><path class="cls-4" d="M60.72,215.38,49.3,165s147.83,2.78,174.2,3.13,133.44-4.36,133.44-4.36l-8.06,51.57s-143.37-2.9-168.8-4.25S60.72,215.38,60.72,215.38Z" transform="translate(-35.91 -21.93)"/><polygon class="cls-3" points="60.79 143.99 41.76 192.49 38.76 194.45 90.62 193.84 99.47 176.47 89.85 148.65 70.76 144.23 60.79 143.99"/><polygon class="cls-2" points="38.1 240.34 49.97 325.91 55.34 325.98 52.84 239.57 38.1 240.34"/><polygon class="cls-3" points="53.24 237.66 65.11 323.23 70.48 323.3 67.98 236.88 53.24 237.66"/><polygon class="cls-2" points="14.98 232.31 17.64 240.53 325.34 237.66 328.75 224.01 14.98 232.31"/><polygon class="cls-3" points="44.4 231.54 32.93 240.53 38.1 240.34 41.29 263.33 53.31 255.8 55.34 231.54 44.4 231.54"/><polygon class="cls-2" points="292.23 191.1 290.34 226.57 282.84 226.57 279.59 189.11 292.23 191.1"/><polygon class="cls-3" points="292.23 192.92 291.34 207.84 281.56 211.75 279.93 192.92 292.23 192.92"/><polygon class="cls-2" points="314.43 237.76 310.46 320.46 303.27 319.46 298.71 236.86 314.43 237.76"/><polygon class="cls-3" points="297.28 234.11 293.31 316.81 286.12 315.82 281.56 233.22 297.28 234.11"/><path class="cls-5" d="M294.62,341c-48.16,0-89.27,1.46-105.57,3.51-11.67-.26-24.22-.39-37.29-.39-62.44,0-113,3.12-113,7s50.61,7,113,7c58.9,0,107.27-2.78,112.56-6.32,9.64.13,19.8.2,30.3.2,62.43,0,74.57-3.85,74.57-6.87S357.05,341,294.62,341Z" transform="translate(-35.91 -21.93)"/><path class="cls-6" d="M154.63,352.21l.47,3.14s11.45,3.11,16.77.52,6.74-11.19,6.74-11.19l-.34-2.29-13.7,8.5Z" transform="translate(-35.91 -21.93)"/><polygon class="cls-7" points="132.29 305.04 133.78 316.42 138.79 317.91 138.4 304.79 132.29 305.04"/><path class="cls-7" d="M114.66,330.79s-.16,4.28-.16,5-12.35,7.1-14.69,7.59-10.09.4-12.51.64a5.2,5.2,0,0,0-4,2.42c-.24.49,7.91,4,13.32,3.64s14-1.54,18.24-1.22,8.07-.32,8.39-.64-.08-6.22,0-8.4-2.26-9-2.26-9Z" transform="translate(-35.91 -21.93)"/><path class="cls-8" d="M168.27,223.38s-18.1,30.94-23.89,29.65a17.59,17.59,0,0,0-4.07-.22c-8.69.3-24.9,3.59-24.63,5.07.31,1.77,3.19,2.59,1.91,4.19s-2.74,1-4.19,2.62,1.92,4.5,3.86,12.24,3.7,35.07,3.79,38.78a46.51,46.51,0,0,0,1.81,10A78.43,78.43,0,0,1,124,333.9l-10.77-.85s-1.27-7.85-2.4-11.73c-.57-2-7.45-17.25-14.19-32.55-6.41-14.59-12.68-29.19-13.25-32.34-1.12-6.46,20.46-17.6,28.64-21.8a99.26,99.26,0,0,1,18.19-6.7Z" transform="translate(-35.91 -21.93)"/><path class="cls-9" d="M125.85,346.7l-.2,3.23s-15.75.43-28.38.72-17-2.94-17-2.94l.17-2.7Z" transform="translate(-35.91 -21.93)"/><path class="cls-10" d="M112.83,334.26a74.68,74.68,0,0,1-12.52,7.43c-6.66,3-16.16,2-17.5,2.31a7.6,7.6,0,0,0-2.33,1,237.94,237.94,0,0,0,25,1.57c12.65,0,20.38.12,20.38.12l-3-9.77s-2.2,3.76-4.38,2.49S112.83,334.26,112.83,334.26Z" transform="translate(-35.91 -21.93)"/><path class="cls-10" d="M164.69,336.79s1-3,2.41-3.17,3.79.12,5,1.53,1.26,2.21,1.88,1.94.22-2.73.22-2.73a11.06,11.06,0,0,1,1.68,1.8,52,52,0,0,1,2.43,6.23c.15,1-.92,5-3.27,8.47-3.27,4.77-20.37,1.35-20.37,1.35s-.69-2.22,3.43-4.61S164.69,336.79,164.69,336.79Z" transform="translate(-35.91 -21.93)"/><path class="cls-11" d="M150.16,256.87A60.91,60.91,0,0,0,135.49,253c-7.9-1-7.59-1.28-16.3-5.8S107.54,237,107.54,237s11.39-6.52,19.41-8.11,28,2.08,28.36,1.13,13-6.59,13-6.59l.81.41s4.33,16.53,0,22.23S150.16,256.87,150.16,256.87Z" transform="translate(-35.91 -21.93)"/><path class="cls-12" d="M176.52,329.32l-.33,2.35-9.6-2.35s-.57-8.6-1.21-12.21a30.5,30.5,0,0,0-.94-3.14h0C160.65,302.45,147,264.84,147,255.87c0-2.08,2-4.64,4.79-7.15h0c5.24-4.8,13.07-9.39,14.08-10,1.54-.94,3.23-14.9,3.23-14.9l0,0c.36.66,5.54,10.53,5.4,20.5-.17,10.33-1.18,6.45-1.5,8.79s1,8.33,2.17,19.56c1.08,10.35-.43,39.18.05,42S176.84,327,176.52,329.32Z" transform="translate(-35.91 -21.93)"/><path class="cls-7" d="M104.75,179.19s-3.64,17.31-5.57,23.31,4.92,10.19,4.92,10.19a14.74,14.74,0,0,1,7.4-5.63c4.75-1.44,6.75-7.68,9-13.12S122,182,122,182l-7.54-2.88Z" transform="translate(-35.91 -21.93)"/><path class="cls-13" d="M125.76,145.64l-.05.62-.54,6-3.06,34.41s-.18-1-2.87-2.45a27.52,27.52,0,0,0-3.49-1.55,58.47,58.47,0,0,0-13.5-2.84s6-20.58,10-25a30.85,30.85,0,0,1,5.67-4.62A79.57,79.57,0,0,1,125.76,145.64Z" transform="translate(-35.91 -21.93)"/><path class="cls-14" d="M146.75,133.25c-3.75-2.63-14.51,2.75-16.32,6.25s-1.31,12-1.31,12l11,4.09,9.85-6.7Z" transform="translate(-35.91 -21.93)"/><path class="cls-15" d="M170.86,185.92c0,.48,0,1,0,1.5,0,6.1-.42,14-.86,20.86-.55,8.54-1.16,15.52-1.16,15.52s-2.4.42-8.51,4.21c-7.32,4.53-18.45,8-27.33,3.73s-8.25-2.62-8.38-4.74c-.09-1.67,3.36-3.19,4.3-5.29a2.43,2.43,0,0,0,.08-1.86c-.33-.91-1.17-3.55-2.25-7.16-2.24-7.45-5.53-19.06-7.51-28.47-.16-.75-.32-1.48-.45-2.2v0c-.2-1-.37-2-.53-2.88-1.51-8.94,2.31-20.6,5.27-27.87.85-2.08,1.62-3.8,2.19-5l.06-.15c.51-1.08.83-1.69.83-1.69l4.25-1.33,8.18-2.56.81-.25,6.9-2.15,2.38-.75,1.51.63,1.8.77c1.84.79,3.48,1.5,4.86,2.21h0a9.59,9.59,0,0,1,4.2,3.42,60.94,60.94,0,0,1,2.51,7.29C166.8,160.9,170.78,176.46,170.86,185.92Z" transform="translate(-35.91 -21.93)"/><path class="cls-7" d="M148.91,140.21s-7.35,10.87-11.23,10.5-7.86-7.49-7.86-7.49a7,7,0,0,0,1.9-1.73,15.49,15.49,0,0,0,2-3.39l1.8-4,10.65-9.41s-2,9-.77,11.79a7.92,7.92,0,0,0,1.32,2A7,7,0,0,0,148.91,140.21Z" transform="translate(-35.91 -21.93)"/><path class="cls-16" d="M146.75,138.51s-3.53,4-8.26,4.46c-4.53.48-6.6-1.32-6.77-1.48a15.49,15.49,0,0,0,2-3.39l1.8-4,10.65-9.41s-2,9-.77,11.79A7.92,7.92,0,0,0,146.75,138.51Z" transform="translate(-35.91 -21.93)"/><path class="cls-17" d="M152,112.53c0,4-1.81,9-3.92,13.37h0v0a88.62,88.62,0,0,1-6.43,11.19c-1.24,1.75-7,2.93-9,1.76-3.45-2-12.18-6.45-14.2-9.83s-1.26-7.72-3-10.15c-1.47-2.06-4.14-5.41-5.38-7.26-.22-.33-.39-.61-.51-.83-.75-1.43-1.24-7.69-1.28-10-.1-6.79,13.87-16.11,24.36-16.64S152,101.35,152,112.53Z" transform="translate(-35.91 -21.93)"/><path class="cls-18" d="M141.63,137.12S147,122.69,145.72,116s-5.2-13.13-16.91-13.13c-10,0-16.49,6.18-18.78,8.8-.22-.33-.39-.61-.51-.83-.75-1.43-1.24-7.69-1.28-10-.1-6.79,13.87-16.11,24.36-16.64S152,101.35,152,112.53C152,121.5,142.88,135.37,141.63,137.12Z" transform="translate(-35.91 -21.93)"/><path class="cls-7" d="M148.07,125.9c.11-.52,1.83-8.34-1.47-15.09-3.42-7-17.74-13.22-27.38-9.46S110,111.64,110,111.64c-.22-.33-.39-.61-.51-.83-.75-1.43-1.24-7.69-1.28-10-.1-6.79,13.87-16.11,24.36-16.64S152,101.35,152,112.53C152,116.53,150.18,121.48,148.07,125.9Z" transform="translate(-35.91 -21.93)"/><path class="cls-19" d="M121.88,119.52s-.72.46-1.62.91a10.68,10.68,0,0,1-1.21.51,2.53,2.53,0,0,1-2.2,0,.15.15,0,0,0,0-.06c-.06-.16-.23-.65-.42-1.3a0,0,0,0,0,0,0,17.79,17.79,0,0,1-.73-3.85q0-.39,0-.75h0c.06-1,.37-1.82,1.13-2.12,1.85-.73,3.63,3,4.5,5.17,0,.05,0,.09,0,.14C121.69,118.93,121.88,119.52,121.88,119.52Z" transform="translate(-35.91 -21.93)"/><path class="cls-20" d="M119.37,117.14a4.6,4.6,0,0,0-3.06-2.28,1.46,1.46,0,0,0-.63,0h0a1.46,1.46,0,0,0-.31.14l0,0a6.8,6.8,0,0,0,.07.89,16.5,16.5,0,0,0,.84,3.36c.2.57.39,1,.5,1.3l0,.07v0a.66.66,0,0,0,0,.11.15.15,0,0,1,0,.06,2.53,2.53,0,0,0,2.2,0,10.68,10.68,0,0,0,1.21-.51A5,5,0,0,0,119.37,117.14Z" transform="translate(-35.91 -21.93)"/><path class="cls-21" d="M118.7,120.29c-.55.35-1.37.09-2.1-.58l-.19-.18a1.63,1.63,0,0,1-.17-.2,16.5,16.5,0,0,1-.84-3.36.86.86,0,0,1,.27-.3l0,0a.89.89,0,0,1,.5-.15,3.07,3.07,0,0,1,2.34,1.61C119.38,118.38,119.44,119.81,118.7,120.29Z" transform="translate(-35.91 -21.93)"/><path class="cls-19" d="M120.59,117.39a1.13,1.13,0,1,1-1.44-.68A1.12,1.12,0,0,1,120.59,117.39Z" transform="translate(-35.91 -21.93)"/><path class="cls-19" d="M139.89,110.71s-.88,3.18-3.46,4l-.37.11a22.16,22.16,0,0,1-3.22.72c-.62.09-1,.11-1,.11s-.07-.38-.14-1c-.05-.43-.1-1-.14-1.58h0c0-.19,0-.4,0-.6,0,0,0,0,0,0v0a.09.09,0,0,1,0-.05v0a18.55,18.55,0,0,1,.12-3.56c0-.26.08-.51.14-.76.31-1.43.92-2.58,2-2.91,3-.86,5.21,3.63,5.86,5.13C139.82,110.53,139.89,110.71,139.89,110.71Z" transform="translate(-35.91 -21.93)"/><path class="cls-22" d="M136.63,114.72a22.75,22.75,0,0,1-3.22.72,4.81,4.81,0,0,1-1.12-.89l-.13-.14h0l-.11-.12h0c-1-1.76-.7-1.5-.81-2.33a16.22,16.22,0,0,1,.28-2.74,9.28,9.28,0,0,1,.09-1.06l0,0a1.67,1.67,0,0,1,.73-.21,1.7,1.7,0,0,1,.45,0,4.89,4.89,0,0,1,3.32,2.65A5,5,0,0,1,136.63,114.72Z" transform="translate(-35.91 -21.93)"/><path class="cls-21" d="M134.94,114.1c-.81.44-2,0-2.8-1.13h0l0,0a4.93,4.93,0,0,1-.34-.54.91.91,0,0,1-.07-.14,17.36,17.36,0,0,1-.17-3,1.29,1.29,0,0,1,.47-.43.53.53,0,0,1,.24-.11,1.86,1.86,0,0,1,.34-.06,3.21,3.21,0,0,1,2.61,1.88C136,112,135.88,113.57,134.94,114.1Z" transform="translate(-35.91 -21.93)"/><path class="cls-19" d="M137.11,111.56a1.13,1.13,0,1,1-1.45-.69A1.13,1.13,0,0,1,137.11,111.56Z" transform="translate(-35.91 -21.93)"/><path class="cls-7" d="M139.64,111.66a11.12,11.12,0,0,1-3,2.45,10.08,10.08,0,0,1-3.76,1.43s3,.09,4.37-.63A4,4,0,0,0,139.64,111.66Z" transform="translate(-35.91 -21.93)"/><path class="cls-23" d="M121.87,124.18a34.39,34.39,0,0,0,.16-7.67,32.1,32.1,0,0,0-1.35-6.15,23.13,23.13,0,0,1,2.93,8.44C124,123,122.57,123.7,121.87,124.18Z" transform="translate(-35.91 -21.93)"/><path class="cls-7" d="M122.36,125.59s4.57-.54,5.58-1.39.42-2.67.42-2.67.88,1.43,1.49,1.63,1.56-.44,1.56-.44a3,3,0,0,1-1.66,1.48c-1,.22-3.76,1.32-5,1.6S122.48,125.87,122.36,125.59Z" transform="translate(-35.91 -21.93)"/><path class="cls-7" d="M131.41,122.72a21.21,21.21,0,0,1-4.18,1.93,19.49,19.49,0,0,1-5,1s2.23,1.6,4.22,1.1a4.2,4.2,0,0,0,2.38-1.74,2,2,0,0,0,1.78.15C131.81,124.86,131.41,122.72,131.41,122.72Z" transform="translate(-35.91 -21.93)"/><path class="cls-21" d="M130.15,125.12s0-.36-1.34-.08-1.35.79-1.35.79a11.93,11.93,0,0,0,1.37-.21A4.82,4.82,0,0,0,130.15,125.12Z" transform="translate(-35.91 -21.93)"/><path class="cls-24" d="M181.15,185.92c-.74-.36-12.67-6.28-13.4-9.84-.56-2.74,5.32-9.94,7.86-16.79a40.7,40.7,0,0,0,5.47,8.38c2,2.18,4.57,1.43,6,.71-3.12,4.7-6.86,9.2-7.93,11.12C177.48,182.57,180.78,185.58,181.15,185.92Z" transform="translate(-35.91 -21.93)"/><path class="cls-21" d="M125.12,104.32l-1.77-4.86,1.77,1.78-.89-2.58,1.61,1.66V98.66s2.59-.65,8.32,0,7.7,1.94,7.7,1.94l-.52,2a81,81,0,0,0-9.5.48C128.38,103.56,125.12,104.32,125.12,104.32Z" transform="translate(-35.91 -21.93)"/><path class="cls-21" d="M115.93,108.07s-2.89,3.72-3.75,5l-.85,1.24a8.91,8.91,0,0,1-1.91-1.92c-.26-.66.4-3.2,1.45-5.3s1.56-3,1.56-3l1.59,2.24-.52-3,1.18,1.91.07-2.45S116.39,106.31,115.93,108.07Z" transform="translate(-35.91 -21.93)"/><path class="cls-7" d="M139.12,108.26S136.44,103.8,133,105c-2.83,1-2.11,6.37-2.11,6.37a9,9,0,0,0,4.48-1C137.67,109.12,139.12,108.26,139.12,108.26Z" transform="translate(-35.91 -21.93)"/><path class="cls-7" d="M120.61,116.36s-1.39-4.7-3.9-4.09c-2.26.55-.95,6.45-.7,6.35a24,24,0,0,0,2.76-.62A3.64,3.64,0,0,0,120.61,116.36Z" transform="translate(-35.91 -21.93)"/><path class="cls-21" d="M130.09,113.06s1.11.13,4.29-1.1a14.63,14.63,0,0,0,4.85-3.4L139,108a16.41,16.41,0,0,1-4.52,2.55c-2.75,1-3.6.7-3.6.7Z" transform="translate(-35.91 -21.93)"/><path class="cls-21" d="M120.88,116.92a12.86,12.86,0,0,1-3.07,1.88,5.69,5.69,0,0,1-2.94.51l1-1.19a7.75,7.75,0,0,0,2.56-.47,4.84,4.84,0,0,0,2.13-1.68Z" transform="translate(-35.91 -21.93)"/><path class="cls-21" d="M139.64,111.66a15.29,15.29,0,0,0-1.3-3.58,9.25,9.25,0,0,0-2.8-3.09,8.91,8.91,0,0,1,3.58,2.77A3.76,3.76,0,0,1,139.64,111.66Z" transform="translate(-35.91 -21.93)"/><path class="cls-21" d="M116.85,120.89a16,16,0,0,1-1.19-4.25,17.37,17.37,0,0,1-.17-2.59,9.14,9.14,0,0,0-.08,4.24A4.25,4.25,0,0,0,116.85,120.89Z" transform="translate(-35.91 -21.93)"/><path class="cls-7" d="M117.18,121.2a14.19,14.19,0,0,0,1.78-.49,20,20,0,0,0,2.91-1.19,12.59,12.59,0,0,1-2.77,2.1A1.51,1.51,0,0,1,117.18,121.2Z" transform="translate(-35.91 -21.93)"/><path class="cls-21" d="M129.52,130.69a20.68,20.68,0,0,0,7.73-5.59,29.24,29.24,0,0,0,4.38-6.2,5.06,5.06,0,0,1,.37,1.4c-.05.34-2,7.89-3.77,10S129.52,130.69,129.52,130.69Z" transform="translate(-35.91 -21.93)"/><path class="cls-19" d="M133,129.6a27,27,0,0,0,4.63-4.2,51.47,51.47,0,0,0,4-4.88s-2.2,7.13-3.53,8.68S133,129.6,133,129.6Z" transform="translate(-35.91 -21.93)"/><path class="cls-7" d="M139.89,117.77A9.19,9.19,0,0,1,142,120.3l.61,1.3s.71-1.95,0-2.7A6.57,6.57,0,0,0,139.89,117.77Z" transform="translate(-35.91 -21.93)"/><path class="cls-7" d="M150.91,105a27.4,27.4,0,0,1,5.3-9.09c3.52-3.68,5.79,3.92,5.26,6.94s-4.39,13.6-7.13,13.13c-1.74-.3-2.4-2.36-2.4-2.36Z" transform="translate(-35.91 -21.93)"/><path class="cls-16" d="M152,109.64a93.35,93.35,0,0,1,4.2-9.32,10.11,10.11,0,0,1,3.1-3.51s-1.44,3.86-2.21,6.42S152,109.64,152,109.64Z" transform="translate(-35.91 -21.93)"/><path class="cls-16" d="M154.48,105.66s-.35,4,.74,4.7,2.15-.72,2.15-.72-1.42,2.44-3,2.3-1.34-4-1.34-4Z" transform="translate(-35.91 -21.93)"/><path class="cls-21" d="M108.24,106.12s-2.72-1.11-4.2-.67a1.68,1.68,0,0,0-1.39,1.65s-2.29-5.93-1.5-8.44,6-8.33,6-8.33,26.92-5.41,28.35-5.5,5.87,8.91,5.87,8.91-9-4.15-21.12-.21S108.24,106.12,108.24,106.12Z" transform="translate(-35.91 -21.93)"/><path class="cls-25" d="M170,208.28c-.55,8.54-1.16,15.52-1.16,15.52s-2.4.42-8.51,4.21c-7.32,4.53-18.45,8-27.33,3.73s-8.25-2.62-8.38-4.74,5.5-4,4.38-7.15c-.33-.91-1.17-3.55-2.25-7.16,0,0,.5-2.07,3.88-3.44s12.85-4.74,17.49-7.06,11.76-12.81,10.11-13.07-12.11,4.5-11.18,2.85,4.7-3.09,8.7-7.72S163,170.58,163,170.58l2.84,8.61Z" transform="translate(-35.91 -21.93)"/><path class="cls-26" d="M185.74,182a17.37,17.37,0,0,1-3.17,2.29h0a23.16,23.16,0,0,1-11.68,3.12c-6,0-9.24-1.93-9.24-1.93s1.13-10.61,2-22.07a31.38,31.38,0,0,0-1.41-11A54.62,54.62,0,0,0,157.3,141h0s15.6,4.65,18.65,7.31a6.41,6.41,0,0,1,1.27,1.74c.27.49.54,1.06.82,1.69C181.88,160.63,185.74,182,185.74,182Z" transform="translate(-35.91 -21.93)"/><path class="cls-27" d="M141.31,153.75s-3.81,6.46-4.43,8.86-2.61,17.3-.93,25.72,4.79,32.07,3.54,36-1.56,7.23-1.19,8.17a1.61,1.61,0,0,0,1.2,1l-1.69-.24a2.15,2.15,0,0,1-.89-1.8c0-1.25,1.52-5.83,1.38-9.83s-2.22-26.17-3.55-33.25-.18-22.29,1.2-26.77a37.8,37.8,0,0,0,1.6-7Z" transform="translate(-35.91 -21.93)"/><path class="cls-25" d="M164.12,219.85l-25.31,3.53-9.89-1.67a2.43,2.43,0,0,0,.08-1.86c-.33-.91-1.17-3.55-2.25-7.16-2.24-7.45-5.53-19.06-7.51-28.47-.16-.75-.32-1.48-.45-2.2.22.33,3.91,5.71,13.83,11.63,10.26,6.1,24.67,10.11,24.67,10.11Z" transform="translate(-35.91 -21.93)"/><path class="cls-26" d="M135.84,153.53a3.35,3.35,0,0,0-3.51-1.27c-.76.24-1.7,1.35-2.59,2.68a50,50,0,0,0-3.14,5.64s-.36-3.8-.6-7.77c-.16-2.45-.27-5-.23-6.7A5.55,5.55,0,0,1,126,144a42.6,42.6,0,0,1,4.39-4.5,35.35,35.35,0,0,0,.42,3.59c.13.8.31,1.67.54,2.55C132.12,148.47,135.23,152.71,135.84,153.53Z" transform="translate(-35.91 -21.93)"/><path class="cls-26" d="M154,160.58s-5.46-6.47-7.54-7.12-4.87.21-5.13.28c.35-.39,6.32-6.79,5.75-11a45.73,45.73,0,0,1-.34-4.6c-.1-2.71,0-4.88,0-4.88l.92.62a11,11,0,0,1,3,4.14,21.44,21.44,0,0,1,1,2.74C153.25,145.92,154,160.58,154,160.58Z" transform="translate(-35.91 -21.93)"/><path class="cls-25" d="M177.21,150c-1.28,0-10.63,2.22-20.42,1.08-6.11-.71-12.93,8.13-17.42,7.13a40.82,40.82,0,0,1-9.63-3.31,38.24,38.24,0,0,1-3.74-2.13l-.83-.55a18,18,0,0,0-1.65-1c-3.92-2.15-5.61-1.06-5.61-1.06v0a79.57,79.57,0,0,1,7.84-4.53l-.05.62.06-.15A5.55,5.55,0,0,1,126,144a42.6,42.6,0,0,1,4.39-4.5,35.35,35.35,0,0,0,.42,3.59l7.4,10.16,5.13-2.53,3.37-6v-6.58c-.1-2.71,0-4.88,0-4.88l.92.62a11,11,0,0,1,3,4.14l1.8.77c1.84.79,3.48,1.5,4.86,2.21,0,0,15.6,4.65,18.65,7.31A6.41,6.41,0,0,1,177.21,150Z" transform="translate(-35.91 -21.93)"/><path class="cls-28" d="M130.76,142.51s2.93,6.43,7.24,6.55,8.75-10.55,8.75-10.55,1.63,17.07-8,16.37C132.16,154.39,130.76,142.51,130.76,142.51Z" transform="translate(-35.91 -21.93)"/><path class="cls-25" d="M185.74,182a17.37,17.37,0,0,1-3.17,2.29h0l1-7.3-2.94,3c.09-.22,1.26-3.25-.33-12.74a187.29,187.29,0,0,0-4.29-18.95l2.09,3.43C181.88,160.63,185.74,182,185.74,182Z" transform="translate(-35.91 -21.93)"/><path class="cls-29" d="M118.53,180.68s-4.37-.54-8.74-1.49-6.88-1.55-6.88-1.55l-.66,2.19s1.19.84,8.14,2.92,9,2.08,9,2.08Z" transform="translate(-35.91 -21.93)"/><path class="cls-30" d="M122.86,325.69A78.43,78.43,0,0,1,124,333.9l-10.77-.85s-1.27-7.85-2.4-11.73c-.57-2-7.45-17.25-14.19-32.55,0,0,7.4-11.52,6.76-16.68s-3.71-11-6.3-13.08-.8-4.52,9.3-7.34,29.11-6.38,29.11-6.38l4.82,7.52c-8.69.3-24.9,3.59-24.63,5.07.31,1.77,3.19,2.59,1.91,4.19s-2.74,1-4.19,2.62,1.92,4.5,3.86,12.24,3.7,35.07,3.79,38.78A46.51,46.51,0,0,0,122.86,325.69Z" transform="translate(-35.91 -21.93)"/><path class="cls-30" d="M176.52,329.32l-.33,2.35-9.6-2.35s-.57-8.6-1.21-12.21a30.5,30.5,0,0,0-.94-3.14c.35.14,8.1,3.31,7.7.7a261.69,261.69,0,0,1-1.1-33.08c.52-14.39-1.15-29-5.83-32.87s-13.1-.16-13.45,0h0l10-10,7.31-14.9,0,0c.36.66,5.54,10.53,5.4,20.5-.17,10.33-1.18,6.45-1.5,8.79s1,8.33,2.17,19.56c1.08,10.35-.43,39.18.05,42S176.84,327,176.52,329.32Z" transform="translate(-35.91 -21.93)"/><polygon class="cls-3" points="313.93 248.1 300 260.15 298.71 237.91 314.43 237.76 313.93 248.1"/><polygon class="cls-31" points="306.57 185.63 314.43 145.81 258.71 147.01 248.27 185.1 264 186.94 279.93 159.18 269.76 186.29 306.57 185.63"/><polygon class="cls-3" points="308.84 224.57 294.46 237.94 250.01 238.36 252.59 223 308.84 224.57"/><polygon class="cls-32" points="297.41 206.43 250.01 221.08 260.46 219.45 297.58 207.23 297.41 206.43"/><path class="cls-14" d="M331.58,215.26a2.14,2.14,0,0,1,1.82.66s4.62,5.67,4.61,6.62a20.18,20.18,0,0,1-.9,3.55l-6.48-5.19Z" transform="translate(-35.91 -21.93)"/><path class="cls-33" d="M331.51,214.84s-7.88,3.55-10.37,9,17.53,2,17.53,2-6-4.26-6.58-7.64Z" transform="translate(-35.91 -21.93)"/><path class="cls-34" d="M333.7,219.78s-1.32-3-.42-4.26,4.73,7,4.73,7-2.54-4.21-3.44-4.19C333.25,218.39,333.7,219.78,333.7,219.78Z" transform="translate(-35.91 -21.93)"/><path class="cls-35" d="M336.67,237.43a15.34,15.34,0,0,0-1.33,5.07c-.11,2.46-.08,2.91-.08,2.91s-5.35-1.39-6.1-4S336.67,237.43,336.67,237.43Z" transform="translate(-35.91 -21.93)"/><path class="cls-36" d="M333.5,237.41s3.43-3.09,5.06-1.93-.18,2-.18,2,2.84.36,3.09,2.13-1.16,1.77-1.16,1.77,1,4,0,5.46-3.23.26-3.23.26-1.48,2.11-2.47,2-.92-2.46-.92-2.46-1.44-3.83-1.14-4.86a7.37,7.37,0,0,1,1.56-2.29l-1-1.68Z" transform="translate(-35.91 -21.93)"/><path class="cls-37" d="M337,237.17a5.68,5.68,0,0,0-1.31,3.36,3.31,3.31,0,0,0,1.09,2.64s-2.08.19-2.4,1.16,1.16,2.17,1.16,2.17-.87-1.47,0-2a7.48,7.48,0,0,1,3-.49,1.83,1.83,0,0,1-.25-2.05,7.68,7.68,0,0,1,1.17-1.86s-1.21,1-2.23.32S337,237.17,337,237.17Z" transform="translate(-35.91 -21.93)"/><path class="cls-14" d="M320.22,234.19c0-3.95,6-5.23,8.73-6.67s5-2.57,5-2.57,5.13,9.58,3.87,12.56-8.25-.8-8.25-.8Z" transform="translate(-35.91 -21.93)"/><path class="cls-38" d="M320.22,234.19s1.46-2.12,6-1.13,10.71,4.12,11.38,3.18-.95-5-.95-5,2.93,6.5,1.6,8.49-12.84.51-14.94-.17S320.22,234.19,320.22,234.19Z" transform="translate(-35.91 -21.93)"/><path class="cls-39" d="M326.55,231.62l7.67-3.49a13.93,13.93,0,0,0,.83,4.41,22.35,22.35,0,0,0,1,2.6S329.49,231.5,326.55,231.62Z" transform="translate(-35.91 -21.93)"/><path class="cls-40" d="M335.75,229.52a10.8,10.8,0,0,0,.52,2.76,19.51,19.51,0,0,0,1.11,2.95,2.44,2.44,0,0,1-1.62-1.66c-.34-1.33-1-3.24-.67-3.56A3.81,3.81,0,0,1,335.75,229.52Z" transform="translate(-35.91 -21.93)"/><path class="cls-14" d="M317.34,222.78c3,2.57,7.89-1.09,10.77-2.19s5.21-2.07,5.21-2.07-3.84-10.16-6.91-11.17-4.83,6.74-4.83,6.74Z" transform="translate(-35.91 -21.93)"/><path class="cls-41" d="M317.34,222.78s2.55.3,4.77-3.76,3.95-10.77,5.1-10.66,3.15,4,3.15,4-3-6.48-5.33-6.78-8.84,9.33-9.71,11.36S317.34,222.78,317.34,222.78Z" transform="translate(-35.91 -21.93)"/><path class="cls-42" d="M323.43,219.7l7.68-3.48a14.13,14.13,0,0,1-2.78-3.53,24.33,24.33,0,0,1-1.29-2.47S325.46,217.57,323.43,219.7Z" transform="translate(-35.91 -21.93)"/><path class="cls-43" d="M331.08,214.15a10.21,10.21,0,0,1-1.74-2.2,19.93,19.93,0,0,1-1.5-2.78,2.43,2.43,0,0,0,.19,2.31c.77,1.13,1.77,2.89,2.24,2.84A3.94,3.94,0,0,0,331.08,214.15Z" transform="translate(-35.91 -21.93)"/><path class="cls-14" d="M330.63,239.41c1.05.07,1.63,1.35,1.63,1.35s2.67,7.55,2.3,8.52a21.64,21.64,0,0,1-2.22,3.33l-4.77-7.74Z" transform="translate(-35.91 -21.93)"/><path class="cls-44" d="M330.71,239s-9.43.77-14,5.45S334,252.93,334,252.93s-4.62-6.61-4-10.29Z" transform="translate(-35.91 -21.93)"/><path class="cls-45" d="M331.15,244.85s-.28-3.54,1.13-4.55,2.28,9,2.28,9-1.06-5.28-2-5.58C331.2,243.25,331.15,244.85,331.15,244.85Z" transform="translate(-35.91 -21.93)"/><path class="cls-32" d="M313.4,221.37s-15.22,11.4-18.68,14-30.18,9-30.18,9l1.88,2.57s31.25-11,32.1-11.51,15.53-12.66,15.53-12.66Z" transform="translate(-35.91 -21.93)"/><path class="cls-32" d="M316.85,218.94s-17.08,13.7-19.31,14.69-30.15,9.42-30.15,9.42l.53,3.08s28.16-9.92,32.16-12.07,17.71-13,17.71-13Z" transform="translate(-35.91 -21.93)"/><path class="cls-32" d="M322.17,225.09s-27.24,10.5-32.54,12.23S266.42,247,266.42,247l-1.13,1.75,36-13.86c3.8-1.47,21-8.64,21-8.64Z" transform="translate(-35.91 -21.93)"/><path class="cls-32" d="M319.54,233.92s-27.15,4.74-29.3,4.59-24.95,10.19-24.95,10.19l1.52.56s32-9.76,35-10.47,18.6-3.51,18.6-3.51Z" transform="translate(-35.91 -21.93)"/><path class="cls-32" d="M317.87,243.6s-17.84-6.17-20.39-6.76-7.75,2.71-7.75,2.71l27.81,5Z" transform="translate(-35.91 -21.93)"/><path class="cls-14" d="M323.72,223.77a2.34,2.34,0,0,0,.27-2.1s-3.16-7.34-4.09-7.81a22.34,22.34,0,0,0-3.9-.93l1.76,8.92Z" transform="translate(-35.91 -21.93)"/><path class="cls-46" d="M324.09,224.05s-7.44,5.85-14,5.52,6.89-18,6.89-18,1.1,8,4.09,10.25Z" transform="translate(-35.91 -21.93)"/><path class="cls-47" d="M320.4,219.43s2.21,2.78,3.92,2.57-4.42-8.14-4.42-8.14,2.81,4.59,2.33,5.45C321.52,220.57,320.4,219.43,320.4,219.43Z" transform="translate(-35.91 -21.93)"/><path class="cls-35" d="M301.77,223.42a15.69,15.69,0,0,0,4.12,3.25c2.21,1.09,2.64,1.23,2.64,1.23s-3.42,4.35-6.11,4S301.77,223.42,301.77,223.42Z" transform="translate(-35.91 -21.93)"/><path class="cls-36" d="M300.49,226.32s-1.46-4.38.26-5.41,1.71,1,1.71,1,1.47-2.46,3.19-2,1.16,1.78,1.16,1.78,4.08.65,5,2.19-1.05,3.06-1.05,3.06,1.34,2.2.82,3.06-2.62-.14-2.62-.14-4.09-.22-4.91-.91a7.25,7.25,0,0,1-1.47-2.34l-1.95.26Z" transform="translate(-35.91 -21.93)"/><path class="cls-37" d="M301.65,223.05a5.73,5.73,0,0,0,2.56,2.56,3.38,3.38,0,0,0,2.86.06s-.66,2,.1,2.65,2.45-.19,2.45-.19-1.7.21-1.85-.81a7.56,7.56,0,0,1,.77-3,1.84,1.84,0,0,1-2-.59,7.36,7.36,0,0,1-1.24-1.82s.42,1.51-.6,2.18S301.65,223.05,301.65,223.05Z" transform="translate(-35.91 -21.93)"/><path class="cls-35" d="M319,225.24a15.75,15.75,0,0,0,4.11,3.25c2.22,1.09,2.64,1.23,2.64,1.23s-3.41,4.35-6.1,4S319,225.24,319,225.24Z" transform="translate(-35.91 -21.93)"/><path class="cls-36" d="M317.75,228.14s-1.46-4.38.26-5.41,1.71,1,1.71,1,1.47-2.47,3.18-2,1.17,1.78,1.17,1.78,4.07.65,5,2.19-1,3.06-1,3.06,1.33,2.2.82,3.05-2.62-.13-2.62-.13-4.09-.22-4.92-.91a7.25,7.25,0,0,1-1.47-2.34l-1.95.26Z" transform="translate(-35.91 -21.93)"/><path class="cls-37" d="M318.9,224.87a5.78,5.78,0,0,0,2.57,2.56,3.33,3.33,0,0,0,2.85,0s-.66,2,.1,2.66,2.45-.19,2.45-.19-1.69.21-1.84-.81a7.38,7.38,0,0,1,.77-3,1.84,1.84,0,0,1-2-.59,7.36,7.36,0,0,1-1.24-1.82s.42,1.51-.6,2.17S318.9,224.87,318.9,224.87Z" transform="translate(-35.91 -21.93)"/><path class="cls-14" d="M308.37,238.33c-.76-4.62,5.9-10.4,7.5-11.17s4.12.15,6.38,4.74.6,7.53-.8,7.62S316.9,238,316.9,238Z" transform="translate(-35.91 -21.93)"/><path class="cls-48" d="M315.69,226.42a31,31,0,0,0,2.9,8.74c2.41,4.93,3.38,5.61,3.38,5.61s-10.5.91-13.42-.91S304.69,233.63,315.69,226.42Z" transform="translate(-35.91 -21.93)"/><path class="cls-49" d="M316.57,227.48s1.38-.55,3.27,1.69,2.52,6.35,2.52,6.35a15.23,15.23,0,0,0-2.38-4.15c-1.39-1.5-.49,2.9-.49,2.9S316.58,229.69,316.57,227.48Z" transform="translate(-35.91 -21.93)"/><path class="cls-50" d="M320.43,233.19s1.83,3.68,1.6,4.72-1.93-1.83-1.93-1.83,1,.45.87-.76A6.85,6.85,0,0,0,320.43,233.19Z" transform="translate(-35.91 -21.93)"/><path class="cls-35" d="M313.8,240.22a15.71,15.71,0,0,0-1.33,5.07c-.11,2.47-.07,2.92-.07,2.92s-5.35-1.39-6.1-4S313.8,240.22,313.8,240.22Z" transform="translate(-35.91 -21.93)"/><path class="cls-36" d="M310.63,240.21s3.44-3.09,5.07-1.93-.19,1.95-.19,1.95,2.85.36,3.1,2.12-1.16,1.78-1.16,1.78,1,4,0,5.46-3.22.26-3.22.26-1.48,2.11-2.47,2-.93-2.46-.93-2.46-1.43-3.84-1.13-4.86a7.19,7.19,0,0,1,1.56-2.29l-1-1.68Z" transform="translate(-35.91 -21.93)"/><path class="cls-37" d="M314.09,240a5.73,5.73,0,0,0-1.31,3.37,3.33,3.33,0,0,0,1.09,2.64s-2.08.19-2.4,1.16,1.16,2.17,1.16,2.17-.88-1.47,0-2a7.54,7.54,0,0,1,3.05-.49,1.83,1.83,0,0,1-.25-2,7.09,7.09,0,0,1,1.17-1.86s-1.21,1-2.23.32S314.09,240,314.09,240Z" transform="translate(-35.91 -21.93)"/><path class="cls-51" d="M302.83,78.67s-6.16-1.84-7.66,0,10.33,7.79,10.33,7.79S309,77.38,306.75,76,302.83,78.67,302.83,78.67Z" transform="translate(-35.91 -21.93)"/><path class="cls-52" d="M299.81,23.45s-3.18-.95-3.95,0,5.32,4,5.32,4,1.8-4.68.64-5.38S299.81,23.45,299.81,23.45Z" transform="translate(-35.91 -21.93)"/><path class="cls-53" d="M309.85,65.36s-8.12-9.75-5.12-12.5,7.37,4.5,7.37,4.5,5.66-.87,7.71,1.44S309.85,65.36,309.85,65.36Z" transform="translate(-35.91 -21.93)"/><path class="cls-54" d="M299.25,39.38s-4-3.63-7-3.13,7,7.25,7,7.25,6.28-2.25,5.08-4.88S299.25,39.38,299.25,39.38Z" transform="translate(-35.91 -21.93)"/><path class="cls-55" d="M58.51,148.06s-2.92-3-5.92-2.51,5.92,6.63,5.92,6.63,6.28-2.25,5.08-4.87S58.51,148.06,58.51,148.06Z" transform="translate(-35.91 -21.93)"/><path class="cls-56" d="M154.74,109.64s1,0,1.49,1.79c.45,1.63-.59,3.71-1.35,7.91-.61,3.37-8.14,62-4.95,75.62s-7.94,34-13.69,32.46-9.9-9.7-9.9-9.7l-1,.31s6.79,10.62,12.09,10.58,15.75-18.28,13.72-31.36-1.25-26.35-.34-35,3.86-40.31,5.4-45.92,3-7.8,1.89-9.66-2.31-1.69-2.9-1.22A3.09,3.09,0,0,0,154.74,109.64Z" transform="translate(-35.91 -21.93)"/><path class="cls-56" d="M124.15,134s3.7,11.53,5.59,21,3.06,19.22,7.2,22S150,165.21,150,165.21v1.67s-8.17,12.72-12.25,12.24-7.59-17-8.93-25.37-5.78-20.5-5.78-20.5Z" transform="translate(-35.91 -21.93)"/><path class="cls-57" d="M79.3,155.31l43.41.5a1.72,1.72,0,0,1,1.67,2L122.2,170a1.7,1.7,0,0,1-1.67,1.41l-36.19.31h0l-3.66,4.86-1-6.28-2.12-13A1.72,1.72,0,0,1,79.3,155.31Z" transform="translate(-35.91 -21.93)"/><polygon class="cls-58" points="45.5 136.77 45.5 138.59 81.47 137.68 81.47 136.77 45.5 136.77"/><polygon class="cls-58" points="46.08 139.67 46.08 140.96 78.8 140.31 78.8 139.67 46.08 139.67"/><rect class="cls-58" x="63.48" y="142.21" width="18.6" height="0.83"/><path class="cls-59" d="M84.54,126.58l-46.8.54a1.85,1.85,0,0,0-1.8,2.18l2.34,13.08a1.86,1.86,0,0,0,1.81,1.52l39,.33h0l3.94,5.24,1.06-6.77,2.28-14A1.85,1.85,0,0,0,84.54,126.58Z" transform="translate(-35.91 -21.93)"/><polygon class="cls-58" points="4 108.16 4 109.98 39.98 109.07 39.98 108.16 4 108.16"/><rect class="cls-58" x="4.09" y="112.44" width="18.6" height="0.83"/><path class="cls-60" d="M75.57,180.3l-28.86.51a1.72,1.72,0,0,0-1.67,2L47.22,195a1.71,1.71,0,0,0,1.67,1.41l21.64.3h0l3.66,4.87,1-6.28,2.12-13A1.73,1.73,0,0,0,75.57,180.3Z" transform="translate(-35.91 -21.93)"/><circle class="cls-58" cx="19.12" cy="166.13" r="0.97"/><circle class="cls-58" cx="24.48" cy="166.13" r="0.97"/><circle class="cls-58" cx="29.44" cy="166.13" r="0.97"/><path class="cls-61" d="M102.72,205.61s.48,4.39,1.38,5.1,3.79-1.86,3.79-1.86Z" transform="translate(-35.91 -21.93)"/><polygon class="cls-56" points="75.62 192.97 61.86 178.47 74.57 175.91 94.73 194.45 83.48 197.97 75.62 192.97"/><path class="cls-62" d="M106.66,214a4.28,4.28,0,0,0,2,1.59c1.18.32,5.36-.07,4.95-1.18s-2.82-1.59-3.75-1.19S108.14,214.35,106.66,214Z" transform="translate(-35.91 -21.93)"/><path class="cls-63" d="M109.33,215.19a36.69,36.69,0,0,0,2.66,2.58c.72.53,5,.84,5.3.51s-1.35-2.06-2.65-1.64a2.47,2.47,0,0,1-2.53-.32c-.67-.45-.77-.82-.77-.82Z" transform="translate(-35.91 -21.93)"/><path class="cls-64" d="M104.1,211.9s1.17,2,1.81,2.36,5.56-.42,5.76-1.16-2.07-2.16-3.39-2-1.85.8-2.66,1A3.08,3.08,0,0,1,104.1,211.9Z" transform="translate(-35.91 -21.93)"/><path class="cls-65" d="M102.92,207.56s-.58,5,.22,5.43,6.07-1.82,6.57-2.68-1.42-2.12-2.37-1.54-2,1.16-2.47,1S102.92,207.56,102.92,207.56Z" transform="translate(-35.91 -21.93)"/><polygon class="cls-10" points="61.86 178.47 63.9 176.45 75.78 173.98 95.21 193.32 94.73 194.45 74.57 175.91 61.86 178.47"/><path class="cls-66" d="M179.57,200.69c-1.35,6.63-4.84,12.84-5.82,13.64s-7.92.84-19.17-1.11c-6.29-1.08-15.23-2.82-19.2-3.27l-.23,0-.24,0-.35,0-.31,0h-.15c-2.89-.09-6.72,6.28-8.53,7.79a11.62,11.62,0,0,1-8.17,2.44,4.6,4.6,0,0,1-1.21-1,6.85,6.85,0,0,1-3.15-.58c-1.31-.69-.81-1.3-.81-1.3s-3.76-.81-4.45-1.44-3.87-2.92-3-3.54,2.74,1.85,6.55,1.7c3.09-.13,12.5-7.37,13-8.25.21-.4-.91-1.07-1.73-1.25s-2.81-.47-2.81-.47l-3.57-3.56s8.68.32,11.08,1.35c.91.39,3.66,3.68,4.5,4.22s12.75-1.32,19.82-3.17c5.91-1.56,12.14-4.67,12.76-4.75.31,0,.5-3.32.62-6.57s.17-6.45.17-6.45l15.16-.73,0,.24A59.14,59.14,0,0,1,179.57,200.69Z" transform="translate(-35.91 -21.93)"/><path class="cls-7" d="M107.78,215.72a15.07,15.07,0,0,0,5.2.88,15,15,0,0,0,4.73-1.41s-2.88,2.16-5.48,2A9.93,9.93,0,0,1,107.78,215.72Z" transform="translate(-35.91 -21.93)"/><path class="cls-7" d="M113.33,218.6a7.94,7.94,0,0,0,4-.32c2.11-.89,4.59-2.1,4.59-2.1s-3.57,2.56-5.69,2.86S113.33,218.6,113.33,218.6Z" transform="translate(-35.91 -21.93)"/><path class="cls-7" d="M118.91,220.12s.4.07,2.53-1l2.12-1.08a7.71,7.71,0,0,1-2.33,1.75C120.42,219.94,118.91,220.12,118.91,220.12Z" transform="translate(-35.91 -21.93)"/><path class="cls-7" d="M179.57,200.69c-1.35,6.63-4.84,12.84-5.82,13.64s-7.92.84-19.17-1.11c-6.29-1.08-15.23-2.82-19.2-3.27,5.69.43,28.69,2.11,33.46,1.69,5.47-.48,7.91-7.89,4.54-12.89a22.77,22.77,0,0,0-8.44-7.3v0c.13-3.23.17-6.45.17-6.45l15.16-.73,0,.24A59.14,59.14,0,0,1,179.57,200.69Z" transform="translate(-35.91 -21.93)"/><path class="cls-67" d="M161.87,183.05s.94,1.2,11.19.51,12.4-3.06,12.4-3.06l.28,2.12A18.74,18.74,0,0,1,173.12,188c-8.09.31-11.5-2.51-11.5-2.51Z" transform="translate(-35.91 -21.93)"/><path class="cls-7" d="M130.11,130.44s-1.28-2.55,1.61-4.51c5.45-3.71,9.24-5.81,9.24-5.81a32.79,32.79,0,0,1-5.42,6.76C131.81,130.53,130.11,130.44,130.11,130.44Z" transform="translate(-35.91 -21.93)"/><path class="cls-7" d="M131.55,132.05s4.58,3.73,7.7,2.55,3.13-9.91,3.13-9.91-.67,7.49-4.18,8.34C135.13,133.78,131.55,132.05,131.55,132.05Z" transform="translate(-35.91 -21.93)"/><path class="cls-68" d="M130.5,130.91s4.64,3.86,8,2.55c4.86-1.9,3.29-12.31,3.29-12.31s-1.62,8-4.5,9.5S130.5,130.91,130.5,130.91Z" transform="translate(-35.91 -21.93)"/><path class="cls-69" d="M151.77,102.84c-.59,3.72-3.65,9.78-3.65,9.78l-.45-2a47.1,47.1,0,0,0-3.28-9.29c-1.55-3-1.46-8.16-1.46-8.16s-3.31,1.75-5.18-.94a14.44,14.44,0,0,1-2.21-6s-2.54,4.44-6,4.37a19.3,19.3,0,0,1-7.16-1.93s-1.48,3.69-4,4.5a10.05,10.05,0,0,1-4.52.43,9.48,9.48,0,0,1-1.19,7.44c-2.38,4.06-4.45,5.06-4.45,5.06s-6.91,4.21-9.41,2.38a3.58,3.58,0,0,1-1.5-4.21s-2.38.18-3.37-1.45a4.37,4.37,0,0,1-.13-3.59c1.59-5.42,7.15-6.91,7.15-6.91s-2.67-7.45,1.83-10.46,10.31-2.19,10.31-2.19-3.36-3.46,2.29-6.13,12.47,1.63,12.47,1.63S128.44,73,133,72.5s10,5.19,10,5.19a5.2,5.2,0,0,1,2.75-1.38,5.73,5.73,0,0,1,1.26-.06c2.52.17,4,6.5,4,6.5s3.15-1.94,4,2.94S151.77,102.84,151.77,102.84Z" transform="translate(-35.91 -21.93)"/><path class="cls-24" d="M145.68,76.31a4,4,0,0,1-3.3,2.19c-2.44.19-2.49,0-2.49,0s-2,6.06-6.28,6.33a13.55,13.55,0,0,1-7.61-2,9,9,0,0,1-4.13,4.19,17.65,17.65,0,0,1-6.21,1.05s-.22,3.57-3,4.07a7.1,7.1,0,0,1-4.44-.46c.11.26,2.09,5.12-3.58,8.77C98.83,104.25,94,102.84,94,102.84a4.37,4.37,0,0,1-.13-3.59c1.59-5.42,7.15-6.91,7.15-6.91s-2.67-7.45,1.83-10.46,10.31-2.19,10.31-2.19-3.36-3.46,2.29-6.13,12.47,1.63,12.47,1.63S128.44,73,133,72.5s10,5.19,10,5.19A5.2,5.2,0,0,1,145.68,76.31Z" transform="translate(-35.91 -21.93)"/><path class="cls-70" d="M172.25,110.54a9.05,9.05,0,0,0-1.76,1,13.49,13.49,0,0,0-5.52,7.86c0,.12-.06.24-.08.36-.76,3.27-.12,7.85,1,11.43s-2.71,7-5.13,9.24.08,10.61.08,10.61-3-4.76-2.87-8.32,5.62-7.19,4.25-11.53a43.91,43.91,0,0,1-1.21-18.6,16.77,16.77,0,0,1,2-5.48,23.22,23.22,0,0,1,4.37-5.39.36.36,0,0,1,.13-.12,24.7,24.7,0,0,1,2.47-2q.27-.19.54-.36Z" transform="translate(-35.91 -21.93)"/><path class="cls-71" d="M193.76,96.09s12.23-5.23,18.65-2.15,8.43,10.58,10.31,15.07,4.63,5.53,5.13,10-2.8,8.73-2.8,8.73,4-7-.74-11.85-5.41-6.71-5.4-10.71-3.93-8-9.59-8.82C203.34,95.5,193.76,96.09,193.76,96.09Z" transform="translate(-35.91 -21.93)"/><path class="cls-21" d="M223.45,132.23c-2.22,4.51-1.09,15.39-5.22,20.66s-30.17,40.77-33.17,42l-3,1.25s3.93-1.37,3.61-10.79S180.52,139,180.52,139l2.09-24.47,20.16-20s14.42,5.8,14.55,10.19,1.08,8.3,2.75,10.18,3.53,8.68,4,10.73S223.45,132.23,223.45,132.23Z" transform="translate(-35.91 -21.93)"/><path class="cls-56" d="M246.61,177.42c.93,5,16.75,16.79,19.58,23.31s-16.31,36.19-25.57,39-19.69,32.83-24.64,48.5-5.62,19-5.62,19-5.31-59.34-.32-76.84,21.61-48.72,24.13-58.28,0-21.86,0-21.86,4.62-.6,7.75,4.76S246.61,177.42,246.61,177.42Z" transform="translate(-35.91 -21.93)"/><path class="cls-72" d="M244.36,209.17s-6,6.59-13.75,9.67a33.3,33.3,0,0,1-10.78,1.95c-.69,0-1.36,0-2,0a52.38,52.38,0,0,1-6-.32s3.73-10.63,5-13.77a16.36,16.36,0,0,0,1-6.48s12.62-.29,20.21-4.11c0,0,1.08,1.92,2.25,4.21.57,1.13,1.16,2.35,1.66,3.48C243.48,207.26,244.36,209.17,244.36,209.17Z" transform="translate(-35.91 -21.93)"/><path class="cls-7" d="M242.22,204.39A18.77,18.77,0,0,1,236,210.8c-4.18,2.62-9.7-7.88-9.7-7.88h-.94l3.8,13.5v.75l1.41,1.67s8.64-6.23,10.88-8a4.34,4.34,0,0,0,1.88-3.91Z" transform="translate(-35.91 -21.93)"/><path class="cls-7" d="M240.32,200.36s-10.13.73-13.38,3.06-3.67,10.75-4.33,13.34a7.78,7.78,0,0,1-2.78,4l-.05,0h-1.94a52.38,52.38,0,0,1-6-.32s3.73-10.63,5-13.77a16.36,16.36,0,0,0,1-6.48s12.62-.29,20.21-4.11C238.07,196.15,239.15,198.07,240.32,200.36Z" transform="translate(-35.91 -21.93)"/><path class="cls-73" d="M297.55,319.58s8.64,10.67,10.75,12.47c2.81,2.42,16.5,4,21.44,4.64s17.43-1.58,19.28-.34-7.12,8.56-11.5,8.77-14.43,2.28-19.34,2.73c-3,.27-8.88-7.86-13-12.56s-14.33-9.35-14.33-9.35Z" transform="translate(-35.91 -21.93)"/><path class="cls-74" d="M351.88,335l0,0c-.3.52-5.25,8.77-12.77,9.8-7.77,1.05-20.94,3.78-22.58,3.16a3.9,3.9,0,0,1-.94-.66,82.29,82.29,0,0,1-6.69-7.63s6.06-1.45,6.69-1.92-.33-4.41.2-5,3.42-2.27,4.06-1.57,1.35,3.11,2.92,3.51a16.74,16.74,0,0,0,1.67.32c3.47.54,10.94,1.32,15.3.51A57.61,57.61,0,0,1,351.88,335Z" transform="translate(-35.91 -21.93)"/><path class="cls-14" d="M352.82,336.93s-1.61,5.27-9.22,9-25.3,3.56-25.3,3.56L316.51,348l-.94-.66a82.29,82.29,0,0,1-6.69-7.63s6.06-1.45,6.69-1.92-.33-4.41.2-5,3.42-2.27,4.06-1.57,1.35,3.11,2.92,3.51a16.74,16.74,0,0,0,1.67.32,38.18,38.18,0,0,0-5.78,5.71c-2.57,3.54.89,6.28.89,6.28s13.18-.36,20.31-3.33a36,36,0,0,0,12-8.64l0,0Z" transform="translate(-35.91 -21.93)"/><polygon class="cls-61" points="269 306.48 269.28 313.37 262.71 308.2 267.17 304.32 269 306.48"/><path class="cls-75" d="M253.05,301.76a57.67,57.67,0,0,0-3.18,4.83c-1,1.83-7.69,4.91-8.79,5.9s2.09,15.15,1.43,19.66-1.43,6.48.22,7.91,11.64,2.53,13.07,1-2.2-3.63-2.53-5.93,0-21.21,1-24.06,3.63-9.12,3.63-9.12Z" transform="translate(-35.91 -21.93)"/><path class="cls-76" d="M259.43,340.72h-.05c-.88.12-13.76,2-16-1.43s-1-12.45-1.66-17.53-1.42-8-.66-9.28l.19-.25c1-1.17,3.89-2.18,3.89-2.18s.76,4,2.3,4.19,3.41-2.79,4.94-2.09,3.74,2.9,3,4.06a5.42,5.42,0,0,0-2,4.16c-.11,2.88.67,13.53.5,14.73s3.95,2.53,4.77,3.69A3.3,3.3,0,0,1,259.43,340.72Z" transform="translate(-35.91 -21.93)"/><path class="cls-14" d="M259.92,343.29s-12.92,2.77-17.73-1.1-1.65-9.57-1.34-17a49.05,49.05,0,0,0-.91-12.38l1.13-.32.19-.25c1-1.17,3.89-2.18,3.89-2.18s.76,4,2.3,4.19,3.41-2.79,4.94-2.09,3.74,2.9,3,4.06a5.42,5.42,0,0,0-2,4.16s-7.36-.7-10,1.39-.39,15.93,1.68,17.78,13.51,1.21,14.31,1.18h.05Z" transform="translate(-35.91 -21.93)"/><polygon class="cls-61" points="213.96 284.66 220.07 284.66 221.98 280.01 217.15 279.83 213.96 284.66"/><path class="cls-77" d="M301.86,246.92c-.76,6.63-17,27.49-27.25,39.48-3.14,3.68-5.71,6.53-7.08,7.86a35.9,35.9,0,0,0-3.52,3.85c-2.08,2.68-1.82,3.65-1.82,3.65H249.86s.3-1.15.82-3.05c.86-3.16,2.32-8.42,3.95-13.9,1.83-6.14,3.89-12.57,5.57-16.66.29-.71.57-1.34.83-1.89.51-1.07,1-2,1.4-2.93,2.86-6.08,3.67-8.21,3.67-8.21s-5.24,1.8-5.07.14,2.87-3.67,2.87-3.67-4.28-2.39-9.54-5.29l-4.74-2.61c-5.77-3.16-11.55-6.3-13.57-7.27a6.68,6.68,0,0,1-1.88-1.48,37.19,37.19,0,0,1-5.28-8.22,0,0,0,0,1,0,0c-1.7-3.37-2.9-6.33-3-6.53h0s13.14-7,17.47-13.19c0,0,1.24-.79,1.74,0s-.58,2.62,0,3c.1.06.7.33,1.72.79,1.32.59,3.34,1.49,5.82,2.62s5.08,2.33,8,3.75h0a226.21,226.21,0,0,1,21.5,11.59c11.85,7.45,17.68,11.42,19.25,15.24A5.69,5.69,0,0,1,301.86,246.92Z" transform="translate(-35.91 -21.93)"/><path class="cls-10" d="M242.15,208.49a3,3,0,0,1,1.71,2.31c.25,1.71,45.73,23.31,51.66,30.54s-33.33,60.42-33.33,60.42h-2.76s32.43-50.67,31.3-58.17-47.67-29.5-48.58-30.75a7,7,0,0,1-1-3.29Z" transform="translate(-35.91 -21.93)"/><path class="cls-10" d="M236.55,213.41a7.93,7.93,0,0,1,2.93,2.55c1.19,1.75,38.63,21.38,42.46,28s-25.46,58-25.46,58l-3.43-.2s25.59-48.79,22.68-57.11-37.59-24.31-38.54-26.56a13.32,13.32,0,0,0-2.18-3.56Z" transform="translate(-35.91 -21.93)"/><path class="cls-10" d="M233.27,215.71s11.93,14.44,14.82,18.53,17.38,14.6,18.38,15.35-.53,2.17-.61,3.25,2.47,1.57,2.78,2.28S252,301.76,252,301.76h-2.16s9-29.92,12.25-35.67,4.73-8.83,5-10.33-2.75-.47-3.21-1.57,1.37-3.85.71-4.35-11.46-8.43-18.4-14.42-15.43-18.11-15.43-18.11Z" transform="translate(-35.91 -21.93)"/><path class="cls-78" d="M268,276.75l-7.78-8.6c.29-.71.57-1.34.83-1.89.51-1.07,1-2,1.4-2.93,2.86-6.08,3.67-8.21,3.67-8.21s-5.24,1.8-5.07.14,2.87-3.67,2.87-3.67-4.28-2.39-9.54-5.29l-4.74-2.61-16.38-12.6s-2.09-2.08-4.35-4.37a0,0,0,0,1,0,0c-1.7-3.37-2.9-6.33-3-6.53h0s13.14-7,17.47-13.19c0,0,1.24-.79,1.74,0s-.58,2.62,0,3c.1.06.7.33,1.72.79,0,0-4.7,6.39-3.71,10s8.89,12.56,12.12,17.64,14.34,8.35,17.5,8.74.74,3,0,4.88,1.89,5.44,2.37,9.25S268,276.75,268,276.75Z" transform="translate(-35.91 -21.93)"/><path class="cls-79" d="M305.36,325.92l-5.74,6.31-1,1.11-.08,0c-1.7-.5-29-8.79-40.67-26.06a67.56,67.56,0,0,0-4.49-5.5c-.83-1-1.74-2-2.69-3.05-7.38-8.2-17.65-18.94-19.49-21.12-2.66-3.17-15.83-25-16.66-29.33s11.37-28.1,11.37-28.1h0c.25.3,5.2.68,10.76,4.28,1.37.89,3.86,5,4.82,6.29,2.95,3.94,6.48,6.86,9.72,10.94,0,0,.13.19.36.47a36.12,36.12,0,0,1,2.79,4.15,147,147,0,0,1,8.07,17c3,7.39,5.37,13.78,7.1,16.26.88,1.26,2.7,3.69,5.08,6.81l1.39,1.81C286.57,302,305.36,325.92,305.36,325.92Z" transform="translate(-35.91 -21.93)"/><path class="cls-10" d="M230.61,220.83s16.41,21.79,24.91,36.86,13.17,22.57,21.84,37.4,27.41,31.48,27.41,31.48L303.43,328S283.72,309.31,273.61,295,249,253.59,243.23,246.09s-14-20.12-14-20.12Z" transform="translate(-35.91 -21.93)"/><path class="cls-10" d="M226.11,232.43a250.42,250.42,0,0,0,17,33.28c10.37,16.88,26.5,31.84,33.75,41.55s24.48,23.07,24.48,23.07l-1.16,1.28s-20.07-14.94-28.2-24.35-26.25-33.17-32.43-40.17S224,236.4,224,236.4Z" transform="translate(-35.91 -21.93)"/><path class="cls-10" d="M220.68,243.08s9.13,23.51,20.07,37.68,33.61,34.7,40.23,41,18.64,10.46,18.64,10.46l-1,1.11s-13.56-4.25-30-19.75-30-30.38-35.66-37.88-14-28.45-14-28.45Z" transform="translate(-35.91 -21.93)"/><path class="cls-78" d="M299.62,332.23l-1,1.11-.08,0c-1.7-.5-29-8.79-40.67-26.06a67.56,67.56,0,0,0-4.49-5.5h-3.51s.3-1.15.82-3.05c-7.38-8.2-17.65-18.94-19.49-21.12-2.66-3.17-15.83-25-16.66-29.33s11.37-28.1,11.37-28.1,13.14-7,17.47-13.19c0,0,1.24-.79,1.74,0s-.58,2.62,0,3c.21.14,3.16,1.41,7.54,3.41,0,0-1.77,3.92-11.16,9.05-2.45,1.34-4.18,3.73-5.46,6.65a35.41,35.41,0,0,0-1.86,5.82c-1.75,7.42-2,15.79-3.39,19.25-2.43,6,14.32,23.05,23.58,30.4l.27.22c3.71,3.07,6.76,8,9.38,13.3,3.79,7.62,6.69,15.85,9.41,19.75C278.05,324.52,299.62,332.23,299.62,332.23Z" transform="translate(-35.91 -21.93)"/><path class="cls-80" d="M276,288.21a44.77,44.77,0,0,1-23.74-13.77c-10.11-11.49-20.4-20.24-15.07-25.35s14-7.41,14-7.41.13.19.36.47a36.12,36.12,0,0,1,2.79,4.15,147,147,0,0,1,8.07,17c3,7.39,5.37,13.78,7.1,16.26.88,1.26,2.7,3.69,5.08,6.81Z" transform="translate(-35.91 -21.93)"/><path class="cls-81" d="M301.44,244a52.15,52.15,0,0,1-10.7-.41c-11-1.43-36.26-10.25-36.13-16s6.07-10.42,6.07-10.42h0a226.21,226.21,0,0,1,21.5,11.59C294,236.21,299.87,240.18,301.44,244Z" transform="translate(-35.91 -21.93)"/><polygon class="cls-7" points="284.27 77.71 285.29 80.66 284.27 84.58 280.89 84.89 280.89 81.3 284.27 77.71"/><path class="cls-7" d="M213.27,148.34c-2.75,2.25-13.84.5-13.84.5s6-1.92,5-3.42c-.31-.46-.89-1.23-1.55-2.08-1-1.32-2.27-2.84-2.95-3.67l-.51-.62,7.15-1.08s.55.93,1.32,2c1,1.39,2.31,3,3.28,3.31a35.7,35.7,0,0,0,4.54.62S216,146.09,213.27,148.34Z" transform="translate(-35.91 -21.93)"/><path class="cls-16" d="M211.18,143.3s-4,.94-6.57.43c-.65-.13-1.23-.27-1.72-.39-1-1.32-2.27-2.84-2.95-3.67l8,.32C208.88,141.38,210.21,143,211.18,143.3Z" transform="translate(-35.91 -21.93)"/><path class="cls-82" d="M215.77,138.09a7.72,7.72,0,0,1-1.12.49h0c-3.67,1.36-12.19,2.83-18.2,1.42-6.75-1.59-13.75-9.17-13.83-10.67s6.79-31,11.15-33.25c3.83-2,14.08,4.88,17.55,8a7.16,7.16,0,0,1,1,1c1.52,2,2.65,7.16,2.64,9.21v.08c0,2,3.5,3.35,4.81,7.2C221.43,126.47,219.18,136.21,215.77,138.09Z" transform="translate(-35.91 -21.93)"/><path class="cls-18" d="M214.64,138.59c-3.67,1.36-12.19,2.83-18.2,1.42-6.75-1.59-13.75-9.17-13.83-10.67s6.79-31,11.15-33.25c3.83-2,14.08,4.88,17.55,8a7.16,7.16,0,0,1,1,1c1.52,2,2.65,7.16,2.64,9.21l-4.62,3.54s-1-9.1-4.58-8.85-12.57,5.85-9.85,7.08,7,8.77,6.39,9.27-5.29,3.41-5.27,7.75S214.64,138.59,214.64,138.59Z" transform="translate(-35.91 -21.93)"/><path class="cls-7" d="M214.65,138.58h0c-3.67,1.36-12.19,2.83-18.2,1.42-6.75-1.59-13.75-9.17-13.83-10.67s6.79-31,11.15-33.25c3.83-2,14.08,4.88,17.55,8l1.2,1.3s-5.47-4.55-11.81-3.28S187.7,118.8,188,122.6s-.17,9.41,6.67,13.47S214.65,138.58,214.65,138.58Z" transform="translate(-35.91 -21.93)"/><path class="cls-19" d="M202.29,125.34s-5.13-5.25-8.43-4a7.93,7.93,0,0,0-4.35,4.68s1.88,2.9,4.74,3.26S202.29,125.67,202.29,125.34Z" transform="translate(-35.91 -21.93)"/><path class="cls-83" d="M200.4,123.64a4.47,4.47,0,0,1,.26,1h0a3,3,0,0,1-1.07,2.87c-1.38,1-3.52.45-4.78-1.26a4.16,4.16,0,0,1-.79-3.47,2.71,2.71,0,0,1,1-1.49c.08,0,.16-.11.24-.15a5.89,5.89,0,0,1,2.11.47,5,5,0,0,1,.47.22A11.12,11.12,0,0,1,200.4,123.64Z" transform="translate(-35.91 -21.93)"/><path class="cls-21" d="M198.8,122.73a3.32,3.32,0,0,1,.52,1,2.24,2.24,0,0,1-.66,2.46,2.53,2.53,0,0,1-3.41-.89,2.8,2.8,0,0,1-.41-2.83,1.7,1.7,0,0,1,.56-.69,2,2,0,0,1,1.95-.21,5,5,0,0,1,.47.22A3.28,3.28,0,0,1,198.8,122.73Z" transform="translate(-35.91 -21.93)"/><path class="cls-21" d="M190,126.68a7.14,7.14,0,0,0,3.62,2.1,8.19,8.19,0,0,0,4.52-.41s-2.69,2-4.36,1.68A4.84,4.84,0,0,1,190,126.68Z" transform="translate(-35.91 -21.93)"/><path class="cls-19" d="M196.19,125.56a1.33,1.33,0,1,1-1.86-.28A1.32,1.32,0,0,1,196.19,125.56Z" transform="translate(-35.91 -21.93)"/><path class="cls-19" d="M210.84,120.53s-2-9-.05-9.68,3.79,2.2,3.79,2.2,2,3.41,1.26,4.88S211.74,121.05,210.84,120.53Z" transform="translate(-35.91 -21.93)"/><path class="cls-84" d="M212.05,111.71a1.88,1.88,0,0,0-1.12.18,2.13,2.13,0,0,0-.34.25,9.28,9.28,0,0,0,.08,1,19.72,19.72,0,0,0,.09,2.78c.15.69.25,1.28.4,1.85l.5.22a3.29,3.29,0,0,0,.42.34,2.42,2.42,0,0,0,2.58.46c1.1-.58,1.36-2.28.71-4-.09-.22-.2-.45-.32-.68A4.41,4.41,0,0,0,212.05,111.71Z" transform="translate(-35.91 -21.93)"/><path class="cls-21" d="M214.17,114.1c.73,1.35.6,2.84-.28,3.31a1.79,1.79,0,0,1-2-.44,3.68,3.68,0,0,1-.75-.85,29.43,29.43,0,0,1-.51-2.93,1.28,1.28,0,0,1,.6-.71,1.32,1.32,0,0,1,.62-.15A3,3,0,0,1,214.17,114.1Z" transform="translate(-35.91 -21.93)"/><path class="cls-19" d="M213.23,118.06a1,1,0,1,1-1.43-.22A1,1,0,0,1,213.23,118.06Z" transform="translate(-35.91 -21.93)"/><path class="cls-23" d="M212.63,122.49a26.25,26.25,0,0,1-4.24-4,24,24,0,0,1-2.63-4,17.66,17.66,0,0,0,3,6.06C210.87,123,212,122.62,212.63,122.49Z" transform="translate(-35.91 -21.93)"/><path class="cls-7" d="M213.14,123.51s-2.71,2.2-3.71,2.29-1.66-1.18-1.66-1.18a3.86,3.86,0,0,1,.1,1.67c-.22.44-1.07.61-1.07.61a2.22,2.22,0,0,0,1.68-.12c.66-.44,2.71-1.34,3.53-1.89S213.23,123.72,213.14,123.51Z" transform="translate(-35.91 -21.93)"/><path class="cls-7" d="M206.8,126.9a15.68,15.68,0,0,0,3.26-1.25,14.61,14.61,0,0,0,3.21-2.18,4.58,4.58,0,0,1-1.64,2.88,3.17,3.17,0,0,1-2.2.36s0,.56-.86,1.05S206.8,126.9,206.8,126.9Z" transform="translate(-35.91 -21.93)"/><path class="cls-21" d="M208.77,127.49s-.2-.19.66-.78,1.14-.3,1.14-.3-.35.3-.83.63A3.65,3.65,0,0,1,208.77,127.49Z" transform="translate(-35.91 -21.93)"/><path class="cls-7" d="M209.66,136.07s4.35,1.18,6.1.36,1.89-3.34,1.89-3.34a4.55,4.55,0,0,1-3.21,2.5C212.27,135.84,209.66,136.07,209.66,136.07Z" transform="translate(-35.91 -21.93)"/><path class="cls-68" d="M206.1,133.32s5.45,3.23,8.57,2.6c3.87-.78,3.15-5.34,2.33-5.83l-.82-.49a9.74,9.74,0,0,0-6,2.67C209.22,133.16,206.1,133.32,206.1,133.32Z" transform="translate(-35.91 -21.93)"/><path class="cls-16" d="M206.1,133.32s1.78-1.86,3.17-3.62c1.94-2.44,3.61-3.89,5.4-3.82s1.78,3.31,1.51,3.72-1.27.72-3.31,2.21S206.1,133.32,206.1,133.32Z" transform="translate(-35.91 -21.93)"/><path class="cls-21" d="M204.71,133.32a25.52,25.52,0,0,0,6.09-1.12,26.85,26.85,0,0,0,5.38-2.6s.38,1.27-2.48,2.67c-2.55,1.26-8.49,1.2-8.49,1.2Z" transform="translate(-35.91 -21.93)"/><path class="cls-16" d="M202.29,125.34s-4.77-7.79-8.38-7.26c-4.49.65-5.22,8.6-5.22,8.6s3.56-4.3,6.8-3.82A23.72,23.72,0,0,1,202.29,125.34Z" transform="translate(-35.91 -21.93)"/><path class="cls-21" d="M188,126.68a12.36,12.36,0,0,1,1.66-5.15,13,13,0,0,1,3.38-3.7,10.64,10.64,0,0,0-2.06,2.89,46.42,46.42,0,0,0-1.42,5.31Z" transform="translate(-35.91 -21.93)"/><path class="cls-21" d="M202.29,125.34a17.29,17.29,0,0,0-7.29-.72c-3.6.55-3.33,1.37-4.84,2.06a6.42,6.42,0,0,1-3.8,0,4.36,4.36,0,0,0,3.32-1.42c1.6-1.6,2.49-4.11,7.37-2.67C201,123.76,202.29,125.34,202.29,125.34Z" transform="translate(-35.91 -21.93)"/><path class="cls-16" d="M215,112.56s-2.67-4.2-5-2.93.91,10.9.91,10.9-.23-6.44,1.47-7.07S215,112.56,215,112.56Z" transform="translate(-35.91 -21.93)"/><path class="cls-21" d="M213.91,112.56a10.74,10.74,0,0,0-1.5-2.25A4.15,4.15,0,0,0,209.7,109a6.24,6.24,0,0,1,3.46,1.13,5,5,0,0,1,1.59,2Z" transform="translate(-35.91 -21.93)"/><path class="cls-21" d="M210.84,120.53s1.17-4.82,2.13-6.36,1.89-.24,2.55-.41,1.42-4.13,1.42-4.13a3.73,3.73,0,0,1-2.64,2.23c-1.82.23-2.11.52-3.13,1.9S210.84,120.53,210.84,120.53Z" transform="translate(-35.91 -21.93)"/><path class="cls-21" d="M215.87,116.07a4.45,4.45,0,0,1-.89,2.23,6.11,6.11,0,0,1-1.82,1.79s3.15-1.09,3.39-2A2.81,2.81,0,0,0,215.87,116.07Z" transform="translate(-35.91 -21.93)"/><path class="cls-21" d="M195.06,110.26a27.53,27.53,0,0,0-3.75,3.67c-2,2.38-6.22,8.67-6.22,8.67s1-6.08,3.6-10a12.51,12.51,0,0,1,4.73-4.42l.84,1.15-.53-1.39.79.93v-1.33S195.65,109.73,195.06,110.26Z" transform="translate(-35.91 -21.93)"/><path class="cls-21" d="M213.44,106.8a35,35,0,0,0-5.42-.25,12.94,12.94,0,0,0-2.66.32c-.21.09-2-1.57-2-1.57l1.29.51-.31-1.1.65,1.08-.22-1.08s4-1.06,6.57,0A3.27,3.27,0,0,1,213.44,106.8Z" transform="translate(-35.91 -21.93)"/><path class="cls-7" d="M191.59,138a3.06,3.06,0,0,1-1.43,3.18c-1.86,1.07-13.22-2.28-14.61-6.25-1.57-4.44,9.92-2,9.92-2Z" transform="translate(-35.91 -21.93)"/><path class="cls-16" d="M189.51,136.79a35.06,35.06,0,0,0-7.44-1.89,16.43,16.43,0,0,0-5.13,0s4.5.55,6.88,1.89S189.51,136.79,189.51,136.79Z" transform="translate(-35.91 -21.93)"/><path class="cls-16" d="M187,136.79s1.54,1.11,1.74,2.14-3,.74-3,.74,2-.13,1.31-1.21a3.94,3.94,0,0,0-1.31-1.43Z" transform="translate(-35.91 -21.93)"/><path class="cls-85" d="M322.75,113.88a63.37,63.37,0,0,1-5.88,3.48c-1.68.72-4.86.19-5.34.43s-19.67,14.18-26.46,16.6-13.63,3.7-17.23,5.34c-1.16.53-4.67,1.81-8.9,3.31h0c-8.87,3.14-20.86,7.23-20.86,7.23S245.2,137.7,247.4,135c0,0,15.2-3.1,19.36-4.63s10.44-5.35,16.2-7.28c3.21-1.07,11.1-3,17.6-4.65,5.17-1.34,9.45-2.55,9.77-3.1.72-1.25.9-4.31,1.74-6.89s0-11.46,0-11.46,1.92-.78,2.34,0,.06,3.3,0,4.86S322.75,113.88,322.75,113.88Z" transform="translate(-35.91 -21.93)"/><polygon class="cls-56" points="277.14 70.35 273.39 72.1 287.83 96.72 289.66 95.35 277.14 70.35"/><path class="cls-86" d="M318.69,96.67c-1.37-.19-2.65,6.85-1.77,7.73s1.38-1,2.23-2.88,1.74-2.64,1.5-3.12A11.14,11.14,0,0,0,318.69,96.67Z" transform="translate(-35.91 -21.93)"/><path class="cls-87" d="M322.39,100.65c-.87-.15-4.28,3.81-3.73,5.43s1.83,1,1.83,1-.89,2.75-.23,3.62,1.59,0,1.59,0,0,1.84.9,2.26,2.88-4.14,2.82-5-1.26-1.2-1.26-1.2,1-3.42-.06-3.84-1.5.12-1.5.12S323.65,100.86,322.39,100.65Z" transform="translate(-35.91 -21.93)"/><path class="cls-7" d="M300.56,118.47c-7.25,2.4-6.78,3.91-10.45,6.12-6.33,3.81-9.84,11.09-10.3,11.48l-20.88,7c-8.87,3.14-20.86,7.23-20.86,7.23S245.2,137.7,247.4,135c0,0,15.2-3.1,19.36-4.63s10.44-5.35,16.2-7.28C286.17,122.05,294.06,120.15,300.56,118.47Z" transform="translate(-35.91 -21.93)"/><path class="cls-88" d="M243.11,191.92c-.25,1.67-4.19,4.48-5,4.23-.69-.2-2.65,2.22-4.53,3.08h0a2.75,2.75,0,0,1-1.21.29c-2.19-.06-3.79-.43-6.21.37s-7.61,1.38-9,0-3.25-20.93-5.25-26.56S197.3,149,197.3,149l2.57-.35s9.55.9,11.31-.31,2.09-4.71,2.09-4.71a11.86,11.86,0,0,1,4.38.21c.84.29,2,1.37,3.78,2.8a37.3,37.3,0,0,0,8.18,5c5.39,2.43,8.41,2.19,9.56,2.79,3.9,2,1.9,12.51,1.15,17.7S243.36,190.26,243.11,191.92Z" transform="translate(-35.91 -21.93)"/><path class="cls-89" d="M240,191.37s11.46-14.78,15-14.86,3.75,6.58,6.67,8.33l2.91,1.75s-.58.25-5-.17-6.58.34-10.08,2.67-6.89,3.89-8,3.53A2.5,2.5,0,0,1,240,191.37Z" transform="translate(-35.91 -21.93)"/><path class="cls-90" d="M240.62,191.18s5.8-2.34,8.93-6.59,5.06-4,5.93-2.69-5.37,5.5-8.75,7.19a60.43,60.43,0,0,1-6.09,2.66Z" transform="translate(-35.91 -21.93)"/><path class="cls-91" d="M238.07,196.15s1.29-1.22.37-3.64a19.42,19.42,0,0,0-1.58-3.42,19.62,19.62,0,0,1,3.46,2c2.45,1.63.3,3.81.3,3.81Z" transform="translate(-35.91 -21.93)"/><path class="cls-92" d="M236.86,189.09a9.29,9.29,0,0,0,0,3.58l.44,1.11,3.32,1.12a7.36,7.36,0,0,0-1.72-3.15A13.19,13.19,0,0,1,236.86,189.09Z" transform="translate(-35.91 -21.93)"/><path class="cls-93" d="M238.44,192.51s-2.33,1.58-2.39,3.08,2,7,7.07,9.25,12.24-3.31,14.24-3.25l2,.06a11.66,11.66,0,0,0-5.88-5.06c-3.87-1.31-8.18.81-11.06-.44s-3.25-2.87-3.25-2.87Z" transform="translate(-35.91 -21.93)"/><path class="cls-94" d="M236.37,194.61s2.7,5.67,6.75,5.73-1.49-3.23-3.38-4.84-2-2.83-2-2.83Z" transform="translate(-35.91 -21.93)"/><path class="cls-95" d="M233.51,199.24a2.75,2.75,0,0,1-1.21.29c-2.19-.06-3.79-.43-6.21.37s-7.61,1.38-9,0-3.25-20.93-5.25-26.56S197.3,149,197.3,149l2.57-.35s9.55.9,11.31-.31,2.09-4.71,2.09-4.71a11.86,11.86,0,0,1,4.38.21c.84.29,2,1.37,3.78,2.8,0,0-6.2,4.75-9.65,7s1.78,9.56,4.81,14,19.52-.61,20.25-.83c-.5.39-9.5,7.25-14.23,7.37s-3.31,11-1.28,15.45,8.39,7.54,10,8.67C232.69,199.34,233.38,199.27,233.51,199.24Z" transform="translate(-35.91 -21.93)"/><path class="cls-96" d="M230.61,183a33.58,33.58,0,0,0,3.31,7.62c2,3.06,2.74,3.52,2.74,3.52l1.07-1.5a7.34,7.34,0,0,0-3.12-4.07A13,13,0,0,1,230.61,183Z" transform="translate(-35.91 -21.93)"/><path class="cls-97" d="M210.11,142.56c.18,0,.67.08,1.36.21A11.31,11.31,0,0,1,210.11,142.56Z" transform="translate(-35.91 -21.93)"/><path class="cls-97" d="M283.69,122.6c-.61,1.91-1.4,4.93-2.23,8.35h0c-2.3,9.47-4.93,21.93-4.93,21.93a56.61,56.61,0,0,1-12,5.26c-6,1.67-17,6.86-17.78,10.13a21.54,21.54,0,0,0-.37,4.41c0,.47,0,.73,0,.73,0,2.17.22,4,.22,4s-1.5-.83-2-6.16-.38-14.5-3.95-16.22-7.51-.83-11.26-2.53-5.25-2.84-9.15-6.09c-2.74-2.28-6.65-3.27-8.73-3.65l.3,0a14.65,14.65,0,0,0,4-.26h0a11.35,11.35,0,0,0,4.39-1.95c3.1-2.3,13.82-4.8,22.72-6.69l7.21-1.48c1.07-.21,2-.41,2.84-.59,5.42-1.14,13.32-3.91,18.28-5.7,2.15-.77,3.75-1.35,4.35-1.54C277.61,123.94,283.69,122.6,283.69,122.6Z" transform="translate(-35.91 -21.93)"/><path class="cls-97" d="M230.61,220.83c-1.18,9.71-12.5,20.76-14.74,38.59s-1.39,58.29-2.63,58.67-8.38-7.25-10.13-21.5-4-38.85-4.71-43.23-8.77-.66-11.42-3.75c-3.75-4.38,7.5-14.14,8.52-16,.67-1.24.18-1.88,0-3a5.34,5.34,0,0,1,0-2.35c.47-2.24,4.39-6.48,7.27-10.11h0a27.62,27.62,0,0,0,2.38-3.38,12.14,12.14,0,0,0,1-5.77,49.22,49.22,0,0,0-1-8.21s10.7,12.11,11.91,12.74,6.36-12.74,6.36-12.74S232.11,208.49,230.61,220.83Z" transform="translate(-35.91 -21.93)"/><path class="cls-98" d="M226.09,218.1c-.31,6-2.48,10.74-8.23,25.24s-8.12,41-9.5,38.87-1.5-22.5-2.73-30.62-10-16.5-10.13-18c.67-1.24.18-1.88,0-3,0-1.26,0-2.35,0-2.35s10.61,7.63,10.11,3a114.46,114.46,0,0,0-2.84-13.11h0a27.62,27.62,0,0,0,2.38-3.38,12.14,12.14,0,0,0,1-5.77v0l10.95,8.55L223,207A20.78,20.78,0,0,1,226.09,218.1Z" transform="translate(-35.91 -21.93)"/><path class="cls-97" d="M214.11,222.67c-4.1-4.74-11.39-20.18-17.52-35.31-6.59-16.26-11.83-32.17-10.33-34.08,2.9-3.69,14.35-5.94,14.35-5.94a24.93,24.93,0,0,0,2.67,4.31c.56.77,2.23,3.83,4.34,7.84,5.54,10.54,14.2,27.72,14.2,27.72C224.63,199,222.61,232.51,214.11,222.67Z" transform="translate(-35.91 -21.93)"/><ellipse class="cls-56" cx="180.65" cy="180.38" rx="6.89" ry="21.78"/><path class="cls-98" d="M243.63,155a97.87,97.87,0,0,0-12.35-4.28c-6.75-1.82-13.82-8.33-14.69-8.26l-.77.05a11.35,11.35,0,0,0,4.39-1.95c3.1-2.3,13.82-4.8,22.72-6.69-3.53,1.85-9.44,5.2-11.57,7.89-3.12,3.93,3,8.55,6.38,9.87A24.67,24.67,0,0,1,243.63,155Z" transform="translate(-35.91 -21.93)"/><path class="cls-98" d="M281.46,131c-2.3,9.47-4.93,21.93-4.93,21.93a56.61,56.61,0,0,1-12,5.26c-6,1.67-17,6.86-17.78,10.13a21.54,21.54,0,0,0-.37,4.41c0-3,0-14.2,2.23-18.13,2.58-4.55,10.42-8.57,15.92-14s8.25-9.86,9.33-9.63-2.58,9.89-5.5,14.47,1.56,2.11,5.7-2.86A69.08,69.08,0,0,0,281.46,131Z" transform="translate(-35.91 -21.93)"/><path class="cls-98" d="M208.37,165s-8.91,1.78-9.27,9.27-1.47,14.87-1.47,14.87l-1-1.73c-6.59-16.26-11.83-32.17-10.33-34.08,2.9-3.69,14.35-5.94,14.35-5.94a24.93,24.93,0,0,0,2.67,4.31c.56.77,2.23,3.83,4.34,7.84Z" transform="translate(-35.91 -21.93)"/><path class="cls-99" d="M221.89,210.76c-2.07.85-11.88-11.54-12.5-18.09-.16-1.73.21-10.84,0-18.45-.17-5.3-.63-9.88-1.77-10.75a55.79,55.79,0,0,1-7.64-7.13,1.71,1.71,0,0,1-.26-.5,5.5,5.5,0,0,1,0-2.91,4.47,4.47,0,0,1,.09-.45,21,21,0,0,1,1.05-2.31.48.48,0,0,0-.07-.25c-.62-1.53-5.47-9-4.8-9.63s2,1,3,2.48,4.1,5.4,4.43,5.29-4.83-8.29-4.07-8.95,2.93,2.35,3.25,3.07a54.52,54.52,0,0,0,4.21,5.49,8.11,8.11,0,0,1,1.31,1.87h0s1.12-1.16,1.81-.8a1.55,1.55,0,0,1,.61,1.66c-.07.47-.25,4.08-.25,5.62,0,1.17-.13,5.1-.24,5.47s8.58,19.57,11.28,28.17a18.53,18.53,0,0,1,.77,3.17C222.61,198,223,210.28,221.89,210.76Z" transform="translate(-35.91 -21.93)"/><path class="cls-7" d="M209.39,152.11s-.87,3.59-1.06,3.89-1.68.6-3.73-.08a11.52,11.52,0,0,0-4.92-.08,5.5,5.5,0,0,1,0-2.91,4.47,4.47,0,0,1,.09-.45,17.38,17.38,0,0,1,1-2.56,4.49,4.49,0,0,0,.2-.52,31.62,31.62,0,0,0,3.56-.66c.79-.27,3.42.63,3.56.8h0Z" transform="translate(-35.91 -21.93)"/><path class="cls-100" d="M210.57,150c.35-.42.23-1.42-1.3-1.29s-2.73,4.07-3.16,4.86.43,1.11,1.29.87C209.66,153.84,208.86,152.05,210.57,150Z" transform="translate(-35.91 -21.93)"/><path class="cls-101" d="M200,151c.45-.59,5.83.13,6.3.87s-.21,1.16-2,1.13-3,0-3,0,3.24,0,4.31.66,0,1.28-1.23,1.3-4.93.25-5.18,0-.1-1.87.35-2l.44-.14A1.54,1.54,0,0,1,200,151Z" transform="translate(-35.91 -21.93)"/><path class="cls-102" d="M214.11,158.15a113.65,113.65,0,0,0,12.44,1.13c5.31.06,7.37-.57,7.37-.57a56.71,56.71,0,0,1-11.31,2.44A11.79,11.79,0,0,1,214.11,158.15Z" transform="translate(-35.91 -21.93)"/><path class="cls-7" d="M221.89,210.76c-2.07.85-11.88-11.54-12.5-18.09-.16-1.73.21-10.84,0-18.45.89,1.91,3.78,7.78,7.59,11.57a44.63,44.63,0,0,0,4.39,3.88,18.53,18.53,0,0,1,.77,3.17C222.61,198,223,210.28,221.89,210.76Z" transform="translate(-35.91 -21.93)"/><path class="cls-103" d="M271.26,126.12c-2.45,3.08-11.17,13.51-19,16.44-9.23,3.45-15.89-.78-15.89-.78s5.22-6.28,9.07-7.74c.83-.32,2.53-.9,4.7-1.63,1.07-.21,2-.41,2.84-.59C258.4,130.68,266.3,127.91,271.26,126.12Z" transform="translate(-35.91 -21.93)"/><path class="cls-104" d="M207.9,179.46s-3.56,8.31-4.29,15.44,2.5,14,2.5,14-6.5-15-6.75-19.27,5.75-18.58,5.75-18.58Z" transform="translate(-35.91 -21.93)"/><path class="cls-105" d="M212.31,147s5,1.13,8,3.74,12.4,4.26,15.71,5.59a14.06,14.06,0,0,1,5.45,4.29s.32-4.7-2.32-6.18-7-1.08-12.33-4.16-8.71-5.61-11.12-6.36a45.28,45.28,0,0,0-4.54-1.15v.53s1.84.7,1.76,1.83A3.79,3.79,0,0,1,212.31,147Z" transform="translate(-35.91 -21.93)"/><path class="cls-106" d="M185.73,136.06v2.43c3.23,6.73,16.75,33.33,26.59,41.24,11.26,9.05,40.58,5.79,57,0s53.92-53,55.34-56.26a7.46,7.46,0,0,0,.3-5.73l-1.22.91a7,7,0,0,1,0,4.83c-.93,2.76-37.16,47.61-54.42,55.65-12.34,5.76-44.28,9.58-56.41,0s-25-36.68-25.07-38.77C187.74,137,187.19,135.9,185.73,136.06Z" transform="translate(-35.91 -21.93)"/><path class="cls-106" d="M219.67,130.94s5.15,13,13.48,18.21,1.5,11-5,16-8.75,17.53-8.75,17.53h-1.13s2.09-9.08,6.5-14.54,13.69-10.63,11.17-15.26-6.54-3.4-13.29-13.88c-3.72-5.77-3.16-7.19-3.16-7.19Z" transform="translate(-35.91 -21.93)"/><path class="cls-107" d="M223.46,132.16a19.45,19.45,0,0,0-.45-8.69,37.35,37.35,0,0,0-4.77-10.92c-2-3.26,1.12-9.36-4.46-11s-15-2.37-15-2.37a10.37,10.37,0,0,1,0,6h0c-1,4.38-3.66,9.09-5,11.51-2,3.63-4.28,9.34-4.28,12.9s11.68,5.31,5.77,8.28c-3.13,1.58-4.3,6-4.3,6s-.41-3.78,1-5.92-1.52-.91-3.31-4.08a9,9,0,0,1-.93-2.48,8.42,8.42,0,0,1-.2-1.32s0-.06,0-.09a11.18,11.18,0,0,1,1.14-6c1.37-2.56.81-9.49.81-9.49s-.78,3.15-1.56,8c-.11.69-.21,1.3-.3,1.88a.45.45,0,0,1,0,.08s0,.12,0,.22,0,.1,0,.16a26.75,26.75,0,0,0-.4,7.86c.08.86.18,1.72.31,2.59v0c.12.81.27,1.62.46,2.46h0c.18.8.39,1.61.65,2.46a37.57,37.57,0,0,0,1.55,4.12c2,4.41,1.7,8.74,0,10.58s-1.8,3.66-.65,8.72S188,178.69,188,180.53s0,10.83-2.89,14.37a19.36,19.36,0,0,1-5.91,5s1.25-1.5,2.91-3.8,1.46-7.9,1.46-7.9a15.23,15.23,0,0,1-3,7.9c-3,4.21-8.42,5.13-8.42,5.13s-.14-.18-.42-.49c-.13-.13-.28-.29-.47-.47a15.11,15.11,0,0,0-1.61-1.37c-1.66-1.25-.5-2.33,1-6.27,1.19-3.13-.4-6.94-1.47-9.71-.06-.13-.11-.25-.16-.38h0c-.22-.57-.4-1.08-.53-1.52-.75-2.64,2.16-3.61,4.16-6.84,1.9-3.07-.95-7.49-1.23-7.91.14.41,1.85,5.45-1.27,8.6s-4.66,5.46-3.08,7.79a7.9,7.9,0,0,1,1,2.63h0a.09.09,0,0,1,0,0h0a43.36,43.36,0,0,1,.71,7.12,39.68,39.68,0,0,0-2.67-7.15c-2-4.25-1.5-7.3.62-10.46s3.76-4.84.38-8.08c-2.88-2.78-5.49-4.49-3.31-8a10.6,10.6,0,0,1,.86-1.2c.21-.25.44-.52.7-.79,3-3.2-.6-13.16-.87-14.05-.65-2.08,1.41-5.53,3.66-8.88,1.24-1.85-1.34-7.81-3.13-14.16-1.19-4.15-2-8.46-1.25-11.9a8.69,8.69,0,0,1,.84-2.27,16.7,16.7,0,0,1,2.91-3.87.36.36,0,0,1,.13-.12,14.83,14.83,0,0,1,1.66-1.42l.06,0,.24-.17.19-.15c.12-.09.22-.17.32-.23s.36-.25.54-.36c6.83-4.29,15.84-4,19.48-3.66h.1c.46,0,.82.09,1.08.13l.22,0,.23,0s9.34-5,15.94-3.62,11,12.66,10.66,16.16,1.82,5.34,4.77,10.77C225.81,124.2,223.69,131.43,223.46,132.16Z" transform="translate(-35.91 -21.93)"/><path class="cls-108" d="M195.49,98.36c-1.4.3-15,3.92-17.55,6.6-1.88,2-1.95,9.73-2.35,12s-4.15,7-4.74,8.78,2.12,7,2.77,9.8-4.7,8.24-4.68,12.95-1.81,8.73-4.18,9.61a3.46,3.46,0,0,0-1.09.66,10.6,10.6,0,0,1,.86-1.2c2.37-.87,3.35-5.24,3-8.32s1.75-6,3.08-8.36,2.67-5.53-.31-10,1.64-9.63,3.21-12.08-.34-12,2.36-14.41C181,99.78,194.05,98.57,195.49,98.36Z" transform="translate(-35.91 -21.93)"/><path class="cls-108" d="M167.93,185.33a.09.09,0,0,1,0,0h0a.59.59,0,0,1,0,.08A.5.5,0,0,1,167.93,185.33Z" transform="translate(-35.91 -21.93)"/><path class="cls-108" d="M187.57,130.08c.05.41.12.85.2,1.32A8.42,8.42,0,0,1,187.57,130.08Z" transform="translate(-35.91 -21.93)"/><path class="cls-108" d="M185.17,145.41c-2.36,3.05-2.5,9.52-1.75,15.06s-3.75,13-8.15,15.25c-2.72,1.37-4.91,4.81-6.18,7.24-.06-.13-.11-.25-.16-.38h0a18.92,18.92,0,0,1,5.61-7.14A18.23,18.23,0,0,0,182.16,162c.53-4.79-.28-11.8,1.43-15.29,1.34-2.72,4.28-5.49,4.37-8.86.18.8.39,1.61.65,2.46A29,29,0,0,1,185.17,145.41Z" transform="translate(-35.91 -21.93)"/><path class="cls-108" d="M184.5,164.08a12.47,12.47,0,0,0,.57,7.94c.74,2.08-4.41,7.25-6.28,9.67s-1.44,8.17-.77,11.07-4.58,6.55-5.93,7.61a3.67,3.67,0,0,0-.45.41c-.13-.13-.28-.29-.47-.47,1.47-1.37,5.62-3,6.06-7.42.5-5.08-.73-8.83.6-11.23s7.41-7.07,5.95-11.22,1.86-12.54,2.18-15.69,4.68-8.81,4.68-8.81l.26,1.33s-3.63,3.89-3.59,6.7S185.37,160.72,184.5,164.08Z" transform="translate(-35.91 -21.93)"/><path class="cls-108" d="M198.78,105.17h0c-.28.32-4.1,4.42-17.75,6.51a27.19,27.19,0,0,1-10.54-.19,13.4,13.4,0,0,1-6.85-3.68c-.29-.32-.49-.58-.62-.75a23.22,23.22,0,0,1,4.37-5.39.36.36,0,0,1,.13-.12,14.83,14.83,0,0,1,1.66-1.42l.06,0,.24-.17.19-.15c.12-.09.22-.17.32-.23s.36-.25.54-.36c6.83-4.29,15.84-4,19.48-3.66h.1l1.08.13.22,0,.23,0,7.15,3.46A10.37,10.37,0,0,1,198.78,105.17Z" transform="translate(-35.91 -21.93)"/></g></g></svg>